{
 "accessors": [
  {
   "bufferView": 0,
   "componentType": 5126,
   "count": 28732,
   "max": [
    52.34425354003906,
    36.402713775634766,
    48.14043426513672
   ],
   "min": [
    -17.441226959228516,
    -67.96253204345703,
    -36.39714431762695
   ],
   "type": "VEC3"
  },
  {
   "bufferView": 1,
   "componentType": 5126,
   "count": 28732,
   "type": "VEC3"
  },
  {
   "bufferView": 2,
   "componentType": 5125,
   "count": 172404,
   "type": "SCALAR"
  },
  {
   "bufferView": 3,
   "componentType": 5126,
   "count": 24526,
   "max": [
    18.539470672607422,
    41.367706298828125,
    53.42597198486328
   ],
   "min": [
    -61.91039276123047,
    -62.221580505371094,
    -34.07046890258789
   ],
   "type": "VEC3"
  },
  {
   "bufferView": 4,
   "componentType": 5126,
   "count": 24526,
   "type": "VEC3"
  },
  {
   "bufferView": 5,
   "componentType": 5125,
   "count": 147186,
   "type": "SCALAR"
  },
  {
   "bufferView": 6,
   "componentType": 5126,
   "count": 16471,
   "max": [
    2.086557388305664,
    66.50009155273438,
    27.12224006652832
   ],
   "min": [
    -55.788028717041016,
    0.2802576720714569,
    -51.1563835144043
   ],
   "type": "VEC3"
  },
  {
   "bufferView": 7,
   "componentType": 5126,
   "count": 16471,
   "type": "VEC3"
  },
  {
   "bufferView": 8,
   "componentType": 5125,
   "count": 98886,
   "type": "SCALAR"
  },
  {
   "bufferView": 9,
   "componentType": 5126,
   "count": 15487,
   "max": [
    47.39260482788086,
    71.93810272216797,
    10.286762237548828
   ],
   "min": [
    -9.20858383178711,
    6.78260612487793,
    -43.407466888427734
   ],
   "type": "VEC3"
  },
  {
   "bufferView": 10,
   "componentType": 5126,
   "count": 15487,
   "type": "VEC3"
  },
  {
   "bufferView": 11,
   "componentType": 5125,
   "count": 93000,
   "type": "SCALAR"
  },
  {
   "bufferView": 12,
   "componentType": 5126,
   "count": 10793,
   "max": [
    17.11930274963379,
    77.12973022460938,
    36.75004196166992
   ],
   "min": [
    -25.992136001586914,
    20.29426383972168,
    -11.456197738647461
   ],
   "type": "VEC3"
  },
  {
   "bufferView": 13,
   "componentType": 5126,
   "count": 10793,
   "type": "VEC3"
  },
  {
   "bufferView": 14,
   "componentType": 5125,
   "count": 64770,
   "type": "SCALAR"
  },
  {
   "bufferView": 15,
   "componentType": 5126,
   "count": 3416,
   "max": [
    21.341888427734375,
    49.36867904663086,
    51.06596755981445
   ],
   "min": [
    -18.738719940185547,
    21.615394592285156,
    18.797157287597656
   ],
   "type": "VEC3"
  },
  {
   "bufferView": 16,
   "componentType": 5126,
   "count": 3416,
   "type": "VEC3"
  },
  {
   "bufferView": 17,
   "componentType": 5125,
   "count": 20514,
   "type": "SCALAR"
  },
  {
   "bufferView": 18,
   "componentType": 5126,
   "count": 2018,
   "max": [
    -9.107970237731934,
    25.485647201538086,
    2.9628045558929443
   ],
   "min": [
    -45.56627655029297,
    0.7706555724143982,
    -28.878572463989258
   ],
   "type": "VEC3"
  },
  {
   "bufferView": 19,
   "componentType": 5126,
   "count": 2018,
   "type": "VEC3"
  },
  {
   "bufferView": 20,
   "componentType": 5125,
   "count": 12114,
   "type": "SCALAR"
  },
  {
   "bufferView": 21,
   "componentType": 5126,
   "count": 1384,
   "max": [
    15.41242504119873,
    33.92074203491211,
    18.338899612426758
   ],
   "min": [
    -10.096068382263184,
    19.618432998657227,
    -8.500582695007324
   ],
   "type": "VEC3"
  },
  {
   "bufferView": 22,
   "componentType": 5126,
   "count": 1384,
   "type": "VEC3"
  },
  {
   "bufferView": 23,
   "componentType": 5125,
   "count": 8292,
   "type": "SCALAR"
  },
  {
   "bufferView": 24,
   "componentType": 5126,
   "count": 1347,
   "max": [
    34.85175323486328,
    21.375024795532227,
    6.493834495544434
   ],
   "min": [
    3.308875322341919,
    4.909388542175293,
    -24.980764389038086
   ],
   "type": "VEC3"
  },
  {
   "bufferView": 25,
   "componentType": 5126,
   "count": 1347,
   "type": "VEC3"
  },
  {
   "bufferView": 26,
   "componentType": 5125,
   "count": 8076,
   "type": "SCALAR"
  },
  {
   "bufferView": 27,
   "componentType": 5126,
   "count": 1306,
   "max": [
    15.557099342346191,
    39.59474182128906,
    48.028541564941406
   ],
   "min": [
    -17.266681671142578,
    22.036670684814453,
    24.830045700073242
   ],
   "type": "VEC3"
  },
  {
   "bufferView": 28,
   "componentType": 5126,
   "count": 1306,
   "type": "VEC3"
  },
  {
   "bufferView": 29,
   "componentType": 5125,
   "count": 7830,
   "type": "SCALAR"
  },
  {
   "bufferView": 30,
   "componentType": 5126,
   "count": 540,
   "max": [
    41.483642578125,
    50.26985549926758,
    11.282105445861816
   ],
   "min": [
    22.470239639282227,
    29.92699432373047,
    3.5043301582336426
   ],
   "type": "VEC3"
  },
  {
   "bufferView": 31,
   "componentType": 5126,
   "count": 540,
   "type": "VEC3"
  },
  {
   "bufferView": 32,
   "componentType": 5125,
   "count": 3240,
   "type": "SCALAR"
  },
  {
   "bufferView": 33,
   "componentType": 5126,
   "count": 508,
   "max": [
    -9.195246696472168,
    64.36428833007812,
    -3.3196048736572266
   ],
   "min": [
    -21.10651397705078,
    51.527259826660156,
    -17.418895721435547
   ],
   "type": "VEC3"
  },
  {
   "bufferView": 34,
   "componentType": 5126,
   "count": 508,
   "type": "VEC3"
  },
  {
   "bufferView": 35,
   "componentType": 5125,
   "count": 3048,
   "type": "SCALAR"
  },
  {
   "bufferView": 36,
   "componentType": 5126,
   "count": 411,
   "max": [
    40.222042083740234,
    45.39734649658203,
    9.620345115661621
   ],
   "min": [
    23.985233306884766,
    30.695295333862305,
    2.561013698577881
   ],
   "type": "VEC3"
  },
  {
   "bufferView": 37,
   "componentType": 5126,
   "count": 411,
   "type": "VEC3"
  },
  {
   "bufferView": 38,
   "componentType": 5125,
   "count": 2472,
   "type": "SCALAR"
  },
  {
   "bufferView": 39,
   "componentType": 5126,
   "count": 401,
   "max": [
    -16.810148239135742,
    28.240022659301758,
    -45.48619842529297
   ],
   "min": [
    -30.49785804748535,
    14.343414306640625,
    -50.209346771240234
   ],
   "type": "VEC3"
  },
  {
   "bufferView": 40,
   "componentType": 5126,
   "count": 401,
   "type": "VEC3"
  },
  {
   "bufferView": 41,
   "componentType": 5125,
   "count": 2400,
   "type": "SCALAR"
  },
  {
   "bufferView": 42,
   "componentType": 5126,
   "count": 399,
   "max": [
    -8.218877792358398,
    65.57394409179688,
    -2.845654249191284
   ],
   "min": [
    -19.926176071166992,
    53.35205841064453,
    -18.07571792602539
   ],
   "type": "VEC3"
  },
  {
   "bufferView": 43,
   "componentType": 5126,
   "count": 399,
   "type": "VEC3"
  },
  {
   "bufferView": 44,
   "componentType": 5125,
   "count": 2400,
   "type": "SCALAR"
  },
  {
   "bufferView": 45,
   "componentType": 5126,
   "count": 400,
   "max": [
    -16.289304733276367,
    29.016761779785156,
    -45.92837142944336
   ],
   "min": [
    -31.49053382873535,
    13.538570404052734,
    -51.58912658691406
   ],
   "type": "VEC3"
  },
  {
   "bufferView": 46,
   "componentType": 5126,
   "count": 400,
   "type": "VEC3"
  },
  {
   "bufferView": 47,
   "componentType": 5125,
   "count": 2400,
   "type": "SCALAR"
  },
  {
   "bufferView": 48,
   "componentType": 5126,
   "count": 398,
   "max": [
    7.9330058097839355,
    64.36747741699219,
    -34.22279357910156
   ],
   "min": [
    -1.8181811571121216,
    51.357948303222656,
    -43.45564270019531
   ],
   "type": "VEC3"
  },
  {
   "bufferView": 49,
   "componentType": 5126,
   "count": 398,
   "type": "VEC3"
  },
  {
   "bufferView": 50,
   "componentType": 5125,
   "count": 2400,
   "type": "SCALAR"
  },
  {
   "bufferView": 51,
   "componentType": 5126,
   "count": 400,
   "max": [
    43.67501449584961,
    61.34872055053711,
    4.648669719696045
   ],
   "min": [
    31.82750129699707,
    44.96445846557617,
    -3.410454034805298
   ],
   "type": "VEC3"
  },
  {
   "bufferView": 52,
   "componentType": 5126,
   "count": 400,
   "type": "VEC3"
  },
  {
   "bufferView": 53,
   "componentType": 5125,
   "count": 2400,
   "type": "SCALAR"
  },
  {
   "bufferView": 54,
   "componentType": 5126,
   "count": 400,
   "max": [
    4.272970199584961,
    70.65258026123047,
    -9.217707633972168
   ],
   "min": [
    -8.188843727111816,
    61.531578063964844,
    -27.648515701293945
   ],
   "type": "VEC3"
  },
  {
   "bufferView": 55,
   "componentType": 5126,
   "count": 400,
   "type": "VEC3"
  },
  {
   "bufferView": 56,
   "componentType": 5125,
   "count": 2400,
   "type": "SCALAR"
  },
  {
   "bufferView": 57,
   "componentType": 5126,
   "count": 402,
   "max": [
    4.343629360198975,
    69.17829132080078,
    -10.566661834716797
   ],
   "min": [
    -7.1423468589782715,
    60.59046173095703,
    -26.87421989440918
   ],
   "type": "VEC3"
  },
  {
   "bufferView": 58,
   "componentType": 5126,
   "count": 402,
   "type": "VEC3"
  },
  {
   "bufferView": 59,
   "componentType": 5125,
   "count": 2400,
   "type": "SCALAR"
  },
  {
   "bufferView": 60,
   "componentType": 5126,
   "count": 400,
   "max": [
    47.51140213012695,
    47.458553314208984,
    -6.148942947387695
   ],
   "min": [
    43.107208251953125,
    36.93067932128906,
    -18.903072357177734
   ],
   "type": "VEC3"
  },
  {
   "bufferView": 61,
   "componentType": 5126,
   "count": 400,
   "type": "VEC3"
  },
  {
   "bufferView": 62,
   "componentType": 5125,
   "count": 2400,
   "type": "SCALAR"
  },
  {
   "bufferView": 63,
   "componentType": 5126,
   "count": 372,
   "max": [
    7.534472465515137,
    62.198944091796875,
    -33.903011322021484
   ],
   "min": [
    -0.014413278549909592,
    51.74776077270508,
    -41.35235595703125
   ],
   "type": "VEC3"
  },
  {
   "bufferView": 64,
   "componentType": 5126,
   "count": 372,
   "type": "VEC3"
  },
  {
   "bufferView": 65,
   "componentType": 5125,
   "count": 2220,
   "type": "SCALAR"
  },
  {
   "bufferView": 66,
   "componentType": 5126,
   "count": 344,
   "max": [
    42.33049392700195,
    59.979881286621094,
    2.2890450954437256
   ],
   "min": [
    31.941625595092773,
    46.68598556518555,
    -4.081518650054932
   ],
   "type": "VEC3"
  },
  {
   "bufferView": 67,
   "componentType": 5126,
   "count": 344,
   "type": "VEC3"
  },
  {
   "bufferView": 68,
   "componentType": 5125,
   "count": 2058,
   "type": "SCALAR"
  },
  {
   "bufferView": 69,
   "componentType": 5126,
   "count": 305,
   "max": [
    45.59860610961914,
    47.159881591796875,
    -7.44424295425415
   ],
   "min": [
    41.40688705444336,
    39.4439582824707,
    -17.719253540039062
   ],
   "type": "VEC3"
  },
  {
   "bufferView": 70,
   "componentType": 5126,
   "count": 305,
   "type": "VEC3"
  },
  {
   "bufferView": 71,
   "componentType": 5125,
   "count": 1830,
   "type": "SCALAR"
  }
 ],
 "asset": {
  "generator": "Cardiology app ingest pipeline (pipeline/ingest.py)",
  "version": "2.0"
 },
 "bufferViews": [
  {
   "buffer": 0,
   "byteLength": 344784,
   "byteOffset": 0,
   "target": 34962
  },
  {
   "buffer": 0,
   "byteLength": 344784,
   "byteOffset": 344784,
   "target": 34962
  },
  {
   "buffer": 0,
   "byteLength": 689616,
   "byteOffset": 689568,
   "target": 34963
  },
  {
   "buffer": 0,
   "byteLength": 294312,
   "byteOffset": 1379184,
   "target": 34962
  },
  {
   "buffer": 0,
   "byteLength": 294312,
   "byteOffset": 1673496,
   "target": 34962
  },
  {
   "buffer": 0,
   "byteLength": 588744,
   "byteOffset": 1967808,
   "target": 34963
  },
  {
   "buffer": 0,
   "byteLength": 197652,
   "byteOffset": 2556552,
   "target": 34962
  },
  {
   "buffer": 0,
   "byteLength": 197652,
   "byteOffset": 2754204,
   "target": 34962
  },
  {
   "buffer": 0,
   "byteLength": 395544,
   "byteOffset": 2951856,
   "target": 34963
  },
  {
   "buffer": 0,
   "byteLength": 185844,
   "byteOffset": 3347400,
   "target": 34962
  },
  {
   "buffer": 0,
   "byteLength": 185844,
   "byteOffset": 3533244,
   "target": 34962
  },
  {
   "buffer": 0,
   "byteLength": 372000,
   "byteOffset": 3719088,
   "target": 34963
  },
  {
   "buffer": 0,
   "byteLength": 129516,
   "byteOffset": 4091088,
   "target": 34962
  },
  {
   "buffer": 0,
   "byteLength": 129516,
   "byteOffset": 4220604,
   "target": 34962
  },
  {
   "buffer": 0,
   "byteLength": 259080,
   "byteOffset": 4350120,
   "target": 34963
  },
  {
   "buffer": 0,
   "byteLength": 40992,
   "byteOffset": 4609200,
   "target": 34962
  },
  {
   "buffer": 0,
   "byteLength": 40992,
   "byteOffset": 4650192,
   "target": 34962
  },
  {
   "buffer": 0,
   "byteLength": 82056,
   "byteOffset": 4691184,
   "target": 34963
  },
  {
   "buffer": 0,
   "byteLength": 24216,
   "byteOffset": 4773240,
   "target": 34962
  },
  {
   "buffer": 0,
   "byteLength": 24216,
   "byteOffset": 4797456,
   "target": 34962
  },
  {
   "buffer": 0,
   "byteLength": 48456,
   "byteOffset": 4821672,
   "target": 34963
  },
  {
   "buffer": 0,
   "byteLength": 16608,
   "byteOffset": 4870128,
   "target": 34962
  },
  {
   "buffer": 0,
   "byteLength": 16608,
   "byteOffset": 4886736,
   "target": 34962
  },
  {
   "buffer": 0,
   "byteLength": 33168,
   "byteOffset": 4903344,
   "target": 34963
  },
  {
   "buffer": 0,
   "byteLength": 16164,
   "byteOffset": 4936512,
   "target": 34962
  },
  {
   "buffer": 0,
   "byteLength": 16164,
   "byteOffset": 4952676,
   "target": 34962
  },
  {
   "buffer": 0,
   "byteLength": 32304,
   "byteOffset": 4968840,
   "target": 34963
  },
  {
   "buffer": 0,
   "byteLength": 15672,
   "byteOffset": 5001144,
   "target": 34962
  },
  {
   "buffer": 0,
   "byteLength": 15672,
   "byteOffset": 5016816,
   "target": 34962
  },
  {
   "buffer": 0,
   "byteLength": 31320,
   "byteOffset": 5032488,
   "target": 34963
  },
  {
   "buffer": 0,
   "byteLength": 6480,
   "byteOffset": 5063808,
   "target": 34962
  },
  {
   "buffer": 0,
   "byteLength": 6480,
   "byteOffset": 5070288,
   "target": 34962
  },
  {
   "buffer": 0,
   "byteLength": 12960,
   "byteOffset": 5076768,
   "target": 34963
  },
  {
   "buffer": 0,
   "byteLength": 6096,
   "byteOffset": 5089728,
   "target": 34962
  },
  {
   "buffer": 0,
   "byteLength": 6096,
   "byteOffset": 5095824,
   "target": 34962
  },
  {
   "buffer": 0,
   "byteLength": 12192,
   "byteOffset": 5101920,
   "target": 34963
  },
  {
   "buffer": 0,
   "byteLength": 4932,
   "byteOffset": 5114112,
   "target": 34962
  },
  {
   "buffer": 0,
   "byteLength": 4932,
   "byteOffset": 5119044,
   "target": 34962
  },
  {
   "buffer": 0,
   "byteLength": 9888,
   "byteOffset": 5123976,
   "target": 34963
  },
  {
   "buffer": 0,
   "byteLength": 4812,
   "byteOffset": 5133864,
   "target": 34962
  },
  {
   "buffer": 0,
   "byteLength": 4812,
   "byteOffset": 5138676,
   "target": 34962
  },
  {
   "buffer": 0,
   "byteLength": 9600,
   "byteOffset": 5143488,
   "target": 34963
  },
  {
   "buffer": 0,
   "byteLength": 4788,
   "byteOffset": 5153088,
   "target": 34962
  },
  {
   "buffer": 0,
   "byteLength": 4788,
   "byteOffset": 5157876,
   "target": 34962
  },
  {
   "buffer": 0,
   "byteLength": 9600,
   "byteOffset": 5162664,
   "target": 34963
  },
  {
   "buffer": 0,
   "byteLength": 4800,
   "byteOffset": 5172264,
   "target": 34962
  },
  {
   "buffer": 0,
   "byteLength": 4800,
   "byteOffset": 5177064,
   "target": 34962
  },
  {
   "buffer": 0,
   "byteLength": 9600,
   "byteOffset": 5181864,
   "target": 34963
  },
  {
   "buffer": 0,
   "byteLength": 4776,
   "byteOffset": 5191464,
   "target": 34962
  },
  {
   "buffer": 0,
   "byteLength": 4776,
   "byteOffset": 5196240,
   "target": 34962
  },
  {
   "buffer": 0,
   "byteLength": 9600,
   "byteOffset": 5201016,
   "target": 34963
  },
  {
   "buffer": 0,
   "byteLength": 4800,
   "byteOffset": 5210616,
   "target": 34962
  },
  {
   "buffer": 0,
   "byteLength": 4800,
   "byteOffset": 5215416,
   "target": 34962
  },
  {
   "buffer": 0,
   "byteLength": 9600,
   "byteOffset": 5220216,
   "target": 34963
  },
  {
   "buffer": 0,
   "byteLength": 4800,
   "byteOffset": 5229816,
   "target": 34962
  },
  {
   "buffer": 0,
   "byteLength": 4800,
   "byteOffset": 5234616,
   "target": 34962
  },
  {
   "buffer": 0,
   "byteLength": 9600,
   "byteOffset": 5239416,
   "target": 34963
  },
  {
   "buffer": 0,
   "byteLength": 4824,
   "byteOffset": 5249016,
   "target": 34962
  },
  {
   "buffer": 0,
   "byteLength": 4824,
   "byteOffset": 5253840,
   "target": 34962
  },
  {
   "buffer": 0,
   "byteLength": 9600,
   "byteOffset": 5258664,
   "target": 34963
  },
  {
   "buffer": 0,
   "byteLength": 4800,
   "byteOffset": 5268264,
   "target": 34962
  },
  {
   "buffer": 0,
   "byteLength": 4800,
   "byteOffset": 5273064,
   "target": 34962
  },
  {
   "buffer": 0,
   "byteLength": 9600,
   "byteOffset": 5277864,
   "target": 34963
  },
  {
   "buffer": 0,
   "byteLength": 4464,
   "byteOffset": 5287464,
   "target": 34962
  },
  {
   "buffer": 0,
   "byteLength": 4464,
   "byteOffset": 5291928,
   "target": 34962
  },
  {
   "buffer": 0,
   "byteLength": 8880,
   "byteOffset": 5296392,
   "target": 34963
  },
  {
   "buffer": 0,
   "byteLength": 4128,
   "byteOffset": 5305272,
   "target": 34962
  },
  {
   "buffer": 0,
   "byteLength": 4128,
   "byteOffset": 5309400,
   "target": 34962
  },
  {
   "buffer": 0,
   "byteLength": 8232,
   "byteOffset": 5313528,
   "target": 34963
  },
  {
   "buffer": 0,
   "byteLength": 3660,
   "byteOffset": 5321760,
   "target": 34962
  },
  {
   "buffer": 0,
   "byteLength": 3660,
   "byteOffset": 5325420,
   "target": 34962
  },
  {
   "buffer": 0,
   "byteLength": 7320,
   "byteOffset": 5329080,
   "target": 34963
  }
 ],
 "buffers": [
  {
   "byteLength": 5336400,
   "uri": "model.bin"
  }
 ],
 "meshes": [
  {
   "name": "lv-myocardium",
   "primitives": [
    {
     "attributes": {
      "NORMAL": 1,
      "POSITION": 0
     },
     "indices": 2,
     "mode": 4
    }
   ]
  },
  {
   "name": "rv-myocardium",
   "primitives": [
    {
     "attributes": {
      "NORMAL": 4,
      "POSITION": 3
     },
     "indices": 5,
     "mode": 4
    }
   ]
  },
  {
   "name": "ra-myocardium",
   "primitives": [
    {
     "attributes": {
      "NORMAL": 7,
      "POSITION": 6
     },
     "indices": 8,
     "mode": 4
    }
   ]
  },
  {
   "name": "la-myocardium",
   "primitives": [
    {
     "attributes": {
      "NORMAL": 10,
      "POSITION": 9
     },
     "indices": 11,
     "mode": 4
    }
   ]
  },
  {
   "name": "aortic-wall",
   "primitives": [
    {
     "attributes": {
      "NORMAL": 13,
      "POSITION": 12
     },
     "indices": 14,
     "mode": 4
    }
   ]
  },
  {
   "name": "pulmonary-artery-wall",
   "primitives": [
    {
     "attributes": {
      "NORMAL": 16,
      "POSITION": 15
     },
     "indices": 17,
     "mode": 4
    }
   ]
  },
  {
   "name": "tagged-region-8",
   "primitives": [
    {
     "attributes": {
      "NORMAL": 19,
      "POSITION": 18
     },
     "indices": 20,
     "mode": 4
    }
   ]
  },
  {
   "name": "tagged-region-9",
   "primitives": [
    {
     "attributes": {
      "NORMAL": 22,
      "POSITION": 21
     },
     "indices": 23,
     "mode": 4
    }
   ]
  },
  {
   "name": "tagged-region-7",
   "primitives": [
    {
     "attributes": {
      "NORMAL": 25,
      "POSITION": 24
     },
     "indices": 26,
     "mode": 4
    }
   ]
  },
  {
   "name": "tagged-region-10",
   "primitives": [
    {
     "attributes": {
      "NORMAL": 28,
      "POSITION": 27
     },
     "indices": 29,
     "mode": 4
    }
   ]
  },
  {
   "name": "tagged-region-18",
   "primitives": [
    {
     "attributes": {
      "NORMAL": 31,
      "POSITION": 30
     },
     "indices": 32,
     "mode": 4
    }
   ]
  },
  {
   "name": "tagged-region-16",
   "primitives": [
    {
     "attributes": {
      "NORMAL": 34,
      "POSITION": 33
     },
     "indices": 35,
     "mode": 4
    }
   ]
  },
  {
   "name": "tagged-region-11",
   "primitives": [
    {
     "attributes": {
      "NORMAL": 37,
      "POSITION": 36
     },
     "indices": 38,
     "mode": 4
    }
   ]
  },
  {
   "name": "tagged-region-17",
   "primitives": [
    {
     "attributes": {
      "NORMAL": 40,
      "POSITION": 39
     },
     "indices": 41,
     "mode": 4
    }
   ]
  },
  {
   "name": "tagged-region-23",
   "primitives": [
    {
     "attributes": {
      "NORMAL": 43,
      "POSITION": 42
     },
     "indices": 44,
     "mode": 4
    }
   ]
  },
  {
   "name": "tagged-region-24",
   "primitives": [
    {
     "attributes": {
      "NORMAL": 46,
      "POSITION": 45
     },
     "indices": 47,
     "mode": 4
    }
   ]
  },
  {
   "name": "tagged-region-21",
   "primitives": [
    {
     "attributes": {
      "NORMAL": 49,
      "POSITION": 48
     },
     "indices": 50,
     "mode": 4
    }
   ]
  },
  {
   "name": "tagged-region-19",
   "primitives": [
    {
     "attributes": {
      "NORMAL": 52,
      "POSITION": 51
     },
     "indices": 53,
     "mode": 4
    }
   ]
  },
  {
   "name": "tagged-region-22",
   "primitives": [
    {
     "attributes": {
      "NORMAL": 55,
      "POSITION": 54
     },
     "indices": 56,
     "mode": 4
    }
   ]
  },
  {
   "name": "tagged-region-15",
   "primitives": [
    {
     "attributes": {
      "NORMAL": 58,
      "POSITION": 57
     },
     "indices": 59,
     "mode": 4
    }
   ]
  },
  {
   "name": "tagged-region-20",
   "primitives": [
    {
     "attributes": {
      "NORMAL": 61,
      "POSITION": 60
     },
     "indices": 62,
     "mode": 4
    }
   ]
  },
  {
   "name": "tagged-region-14",
   "primitives": [
    {
     "attributes": {
      "NORMAL": 64,
      "POSITION": 63
     },
     "indices": 65,
     "mode": 4
    }
   ]
  },
  {
   "name": "tagged-region-12",
   "primitives": [
    {
     "attributes": {
      "NORMAL": 67,
      "POSITION": 66
     },
     "indices": 68,
     "mode": 4
    }
   ]
  },
  {
   "name": "tagged-region-13",
   "primitives": [
    {
     "attributes": {
      "NORMAL": 70,
      "POSITION": 69
     },
     "indices": 71,
     "mode": 4
    }
   ]
  }
 ],
 "nodes": [
  {
   "mesh": 0,
   "name": "lv-myocardium"
  },
  {
   "mesh": 1,
   "name": "rv-myocardium"
  },
  {
   "mesh": 2,
   "name": "ra-myocardium"
  },
  {
   "mesh": 3,
   "name": "la-myocardium"
  },
  {
   "mesh": 4,
   "name": "aortic-wall"
  },
  {
   "mesh": 5,
   "name": "pulmonary-artery-wall"
  },
  {
   "mesh": 6,
   "name": "tagged-region-8"
  },
  {
   "mesh": 7,
   "name": "tagged-region-9"
  },
  {
   "mesh": 8,
   "name": "tagged-region-7"
  },
  {
   "mesh": 9,
   "name": "tagged-region-10"
  },
  {
   "mesh": 10,
   "name": "tagged-region-18"
  },
  {
   "mesh": 11,
   "name": "tagged-region-16"
  },
  {
   "mesh": 12,
   "name": "tagged-region-11"
  },
  {
   "mesh": 13,
   "name": "tagged-region-17"
  },
  {
   "mesh": 14,
   "name": "tagged-region-23"
  },
  {
   "mesh": 15,
   "name": "tagged-region-24"
  },
  {
   "mesh": 16,
   "name": "tagged-region-21"
  },
  {
   "mesh": 17,
   "name": "tagged-region-19"
  },
  {
   "mesh": 18,
   "name": "tagged-region-22"
  },
  {
   "mesh": 19,
   "name": "tagged-region-15"
  },
  {
   "mesh": 20,
   "name": "tagged-region-20"
  },
  {
   "mesh": 21,
   "name": "tagged-region-14"
  },
  {
   "mesh": 22,
   "name": "tagged-region-12"
  },
  {
   "mesh": 23,
   "name": "tagged-region-13"
  }
 ],
 "scene": 0,
 "scenes": [
  {
   "nodes": [
    0,
    1,
    2,
    3,
    4,
    5,
    6,
    7,
    8,
    9,
    10,
    11,
    12,
    13,
    14,
    15,
    16,
    17,
    18,
    19,
    20,
    21,
    22,
    23
   ]
  }
 ]
}
