{
 "accessors": [
  {
   "bufferView": 0,
   "componentType": 5126,
   "count": 627,
   "max": [
    33.289703369140625,
    -25.029300689697266,
    -36.09503173828125
   ],
   "min": [
    -42.293800354003906,
    -33.37129592895508,
    -63.66510009765625
   ],
   "type": "VEC3"
  },
  {
   "bufferView": 1,
   "componentType": 5126,
   "count": 627,
   "type": "VEC3"
  },
  {
   "bufferView": 2,
   "componentType": 5125,
   "count": 2910,
   "type": "SCALAR"
  },
  {
   "bufferView": 3,
   "componentType": 5126,
   "count": 190,
   "max": [
    -19.201189041137695,
    -42.06129837036133,
    -28.52508544921875
   ],
   "min": [
    -26.6823787689209,
    -43.516300201416016,
    -40.69500732421875
   ],
   "type": "VEC3"
  },
  {
   "bufferView": 4,
   "componentType": 5126,
   "count": 190,
   "type": "VEC3"
  },
  {
   "bufferView": 5,
   "componentType": 5125,
   "count": 846,
   "type": "SCALAR"
  },
  {
   "bufferView": 6,
   "componentType": 5126,
   "count": 156,
   "max": [
    6.564401626586914,
    -44.495304107666016,
    -38.71502685546875
   ],
   "min": [
    -9.06929874420166,
    -49.06430435180664,
    -49.30499267578125
   ],
   "type": "VEC3"
  },
  {
   "bufferView": 7,
   "componentType": 5126,
   "count": 156,
   "type": "VEC3"
  },
  {
   "bufferView": 8,
   "componentType": 5125,
   "count": 666,
   "type": "SCALAR"
  },
  {
   "bufferView": 9,
   "componentType": 5126,
   "count": 508,
   "max": [
    5.112401962280273,
    4.372699737548828,
    10.36492919921875
   ],
   "min": [
    -14.551558494567871,
    -9.097293853759766,
    -7.66510009765625
   ],
   "type": "VEC3"
  },
  {
   "bufferView": 10,
   "componentType": 5126,
   "count": 508,
   "type": "VEC3"
  },
  {
   "bufferView": 11,
   "componentType": 5125,
   "count": 2760,
   "type": "SCALAR"
  },
  {
   "bufferView": 12,
   "componentType": 5126,
   "count": 4052,
   "max": [
    24.34410285949707,
    30.241497039794922,
    -6.44500732421875
   ],
   "min": [
    -9.822098731994629,
    -18.281299591064453,
    -37.90509033203125
   ],
   "type": "VEC3"
  },
  {
   "bufferView": 13,
   "componentType": 5126,
   "count": 4052,
   "type": "VEC3"
  },
  {
   "bufferView": 14,
   "componentType": 5125,
   "count": 22674,
   "type": "SCALAR"
  },
  {
   "bufferView": 15,
   "componentType": 5126,
   "count": 4282,
   "max": [
    1.6609020233154297,
    -5.854297637939453,
    -6.15509033203125
   ],
   "min": [
    -42.62099838256836,
    -32.969303131103516,
    -44.25506591796875
   ],
   "type": "VEC3"
  },
  {
   "bufferView": 16,
   "componentType": 5126,
   "count": 4282,
   "type": "VEC3"
  },
  {
   "bufferView": 17,
   "componentType": 5125,
   "count": 24480,
   "type": "SCALAR"
  },
  {
   "bufferView": 18,
   "componentType": 5126,
   "count": 580,
   "max": [
    25.598600387573242,
    -27.787296295166016,
    -33.31500244140625
   ],
   "min": [
    -9.485498428344727,
    -49.36630630493164,
    -62.56500244140625
   ],
   "type": "VEC3"
  },
  {
   "bufferView": 19,
   "componentType": 5126,
   "count": 580,
   "type": "VEC3"
  },
  {
   "bufferView": 20,
   "componentType": 5125,
   "count": 2646,
   "type": "SCALAR"
  },
  {
   "bufferView": 21,
   "componentType": 5126,
   "count": 487,
   "max": [
    52.99659729003906,
    18.576702117919922,
    -24.10504150390625
   ],
   "min": [
    24.921003341674805,
    -23.576297760009766,
    -53.92510986328125
   ],
   "type": "VEC3"
  },
  {
   "bufferView": 22,
   "componentType": 5126,
   "count": 487,
   "type": "VEC3"
  },
  {
   "bufferView": 23,
   "componentType": 5125,
   "count": 2340,
   "type": "SCALAR"
  },
  {
   "bufferView": 24,
   "componentType": 5126,
   "count": 532,
   "max": [
    35.04540252685547,
    -1.1683006286621094,
    -17.71502685546875
   ],
   "min": [
    10.00090217590332,
    -36.688297271728516,
    -50.55499267578125
   ],
   "type": "VEC3"
  },
  {
   "bufferView": 25,
   "componentType": 5126,
   "count": 532,
   "type": "VEC3"
  },
  {
   "bufferView": 26,
   "componentType": 5125,
   "count": 2448,
   "type": "SCALAR"
  },
  {
   "bufferView": 27,
   "componentType": 5126,
   "count": 229,
   "max": [
    7.399202346801758,
    16.681697845458984,
    39.53497314453125
   ],
   "min": [
    -28.365978240966797,
    -14.095294952392578,
    -8.30499267578125
   ],
   "type": "VEC3"
  },
  {
   "bufferView": 28,
   "componentType": 5126,
   "count": 229,
   "type": "VEC3"
  },
  {
   "bufferView": 29,
   "componentType": 5125,
   "count": 1188,
   "type": "SCALAR"
  },
  {
   "bufferView": 30,
   "componentType": 5126,
   "count": 587,
   "max": [
    26.7799015045166,
    52.35319900512695,
    25.92498779296875
   ],
   "min": [
    -41.92839813232422,
    -3.4173011779785156,
    -35.91510009765625
   ],
   "type": "VEC3"
  },
  {
   "bufferView": 31,
   "componentType": 5126,
   "count": 587,
   "type": "VEC3"
  },
  {
   "bufferView": 32,
   "componentType": 5125,
   "count": 3192,
   "type": "SCALAR"
  },
  {
   "bufferView": 33,
   "componentType": 5126,
   "count": 879,
   "max": [
    48.70249938964844,
    36.94209671020508,
    9.18499755859375
   ],
   "min": [
    -15.076348304748535,
    -35.17830276489258,
    -58.29510498046875
   ],
   "type": "VEC3"
  },
  {
   "bufferView": 34,
   "componentType": 5126,
   "count": 879,
   "type": "VEC3"
  },
  {
   "bufferView": 35,
   "componentType": 5125,
   "count": 5166,
   "type": "SCALAR"
  },
  {
   "bufferView": 36,
   "componentType": 5126,
   "count": 1193,
   "max": [
    -18.356748580932617,
    30.902202606201172,
    35.15496826171875
   ],
   "min": [
    -55.746795654296875,
    -30.225299835205078,
    -57.10504150390625
   ],
   "type": "VEC3"
  },
  {
   "bufferView": 37,
   "componentType": 5126,
   "count": 1193,
   "type": "VEC3"
  },
  {
   "bufferView": 38,
   "componentType": 5125,
   "count": 6732,
   "type": "SCALAR"
  },
  {
   "bufferView": 39,
   "componentType": 5126,
   "count": 973,
   "max": [
    31.119600296020508,
    8.148700714111328,
    17.66497802734375
   ],
   "min": [
    -40.38959884643555,
    -50.07429885864258,
    -62.88507080078125
   ],
   "type": "VEC3"
  },
  {
   "bufferView": 40,
   "componentType": 5126,
   "count": 973,
   "type": "VEC3"
  },
  {
   "bufferView": 41,
   "componentType": 5125,
   "count": 5754,
   "type": "SCALAR"
  },
  {
   "bufferView": 42,
   "componentType": 5126,
   "count": 692,
   "max": [
    28.973901748657227,
    36.36320114135742,
    13.94500732421875
   ],
   "min": [
    12.811502456665039,
    1.3866996765136719,
    -19.98504638671875
   ],
   "type": "VEC3"
  },
  {
   "bufferView": 43,
   "componentType": 5126,
   "count": 692,
   "type": "VEC3"
  },
  {
   "bufferView": 44,
   "componentType": 5125,
   "count": 4140,
   "type": "SCALAR"
  },
  {
   "bufferView": 45,
   "componentType": 5126,
   "count": 316,
   "max": [
    38.2738037109375,
    33.917301177978516,
    -25.82501220703125
   ],
   "min": [
    33.742698669433594,
    27.580303192138672,
    -42.68499755859375
   ],
   "type": "VEC3"
  },
  {
   "bufferView": 46,
   "componentType": 5126,
   "count": 316,
   "type": "VEC3"
  },
  {
   "bufferView": 47,
   "componentType": 5125,
   "count": 1188,
   "type": "SCALAR"
  },
  {
   "bufferView": 48,
   "componentType": 5126,
   "count": 395,
   "max": [
    54.08940124511719,
    31.08749771118164,
    -24.14508056640625
   ],
   "min": [
    37.21220397949219,
    7.792697906494141,
    -31.29510498046875
   ],
   "type": "VEC3"
  },
  {
   "bufferView": 49,
   "componentType": 5126,
   "count": 395,
   "type": "VEC3"
  },
  {
   "bufferView": 50,
   "componentType": 5125,
   "count": 1530,
   "type": "SCALAR"
  },
  {
   "bufferView": 51,
   "componentType": 5126,
   "count": 240,
   "max": [
    46.69879913330078,
    26.02419662475586,
    -32.75506591796875
   ],
   "min": [
    42.64179992675781,
    16.06570053100586,
    -47.71502685546875
   ],
   "type": "VEC3"
  },
  {
   "bufferView": 52,
   "componentType": 5126,
   "count": 240,
   "type": "VEC3"
  },
  {
   "bufferView": 53,
   "componentType": 5125,
   "count": 924,
   "type": "SCALAR"
  },
  {
   "bufferView": 54,
   "componentType": 5126,
   "count": 232,
   "max": [
    55.28730010986328,
    3.894702911376953,
    -43.68499755859375
   ],
   "min": [
    52.20189666748047,
    -4.963306427001953,
    -54.03509521484375
   ],
   "type": "VEC3"
  },
  {
   "bufferView": 55,
   "componentType": 5126,
   "count": 232,
   "type": "VEC3"
  },
  {
   "bufferView": 56,
   "componentType": 5125,
   "count": 756,
   "type": "SCALAR"
  },
  {
   "bufferView": 57,
   "componentType": 5126,
   "count": 150,
   "max": [
    54.94779968261719,
    -7.953296661376953,
    -50.15509033203125
   ],
   "min": [
    52.622901916503906,
    -19.501300811767578,
    -54.54510498046875
   ],
   "type": "VEC3"
  },
  {
   "bufferView": 58,
   "componentType": 5126,
   "count": 150,
   "type": "VEC3"
  },
  {
   "bufferView": 59,
   "componentType": 5125,
   "count": 516,
   "type": "SCALAR"
  },
  {
   "bufferView": 60,
   "componentType": 5126,
   "count": 269,
   "max": [
    28.87190055847168,
    -19.729297637939453,
    4.65496826171875
   ],
   "min": [
    12.074003219604492,
    -48.43930435180664,
    -2.97503662109375
   ],
   "type": "VEC3"
  },
  {
   "bufferView": 61,
   "componentType": 5126,
   "count": 269,
   "type": "VEC3"
  },
  {
   "bufferView": 62,
   "componentType": 5125,
   "count": 1434,
   "type": "SCALAR"
  },
  {
   "bufferView": 63,
   "componentType": 5126,
   "count": 193,
   "max": [
    21.816701889038086,
    -39.714298248291016,
    4.58489990234375
   ],
   "min": [
    7.288002014160156,
    -47.451297760009766,
    0.93499755859375
   ],
   "type": "VEC3"
  },
  {
   "bufferView": 64,
   "componentType": 5126,
   "count": 193,
   "type": "VEC3"
  },
  {
   "bufferView": 65,
   "componentType": 5125,
   "count": 918,
   "type": "SCALAR"
  },
  {
   "bufferView": 66,
   "componentType": 5126,
   "count": 331,
   "max": [
    21.725500106811523,
    42.23540115356445,
    -25.68499755859375
   ],
   "min": [
    -27.066198348999023,
    7.778697967529297,
    -44.86505126953125
   ],
   "type": "VEC3"
  },
  {
   "bufferView": 67,
   "componentType": 5126,
   "count": 331,
   "type": "VEC3"
  },
  {
   "bufferView": 68,
   "componentType": 5125,
   "count": 1872,
   "type": "SCALAR"
  },
  {
   "bufferView": 69,
   "componentType": 5126,
   "count": 318,
   "max": [
    56.59980010986328,
    2.842700958251953,
    -5.63507080078125
   ],
   "min": [
    44.14959716796875,
    -17.60629653930664,
    -32.16510009765625
   ],
   "type": "VEC3"
  },
  {
   "bufferView": 70,
   "componentType": 5126,
   "count": 318,
   "type": "VEC3"
  },
  {
   "bufferView": 71,
   "componentType": 5125,
   "count": 1476,
   "type": "SCALAR"
  },
  {
   "bufferView": 72,
   "componentType": 5126,
   "count": 158,
   "max": [
    52.09880065917969,
    3.6376991271972656,
    -8.45501708984375
   ],
   "min": [
    49.15910339355469,
    -7.808292388916016,
    -14.74505615234375
   ],
   "type": "VEC3"
  },
  {
   "bufferView": 73,
   "componentType": 5126,
   "count": 158,
   "type": "VEC3"
  },
  {
   "bufferView": 74,
   "componentType": 5125,
   "count": 588,
   "type": "SCALAR"
  },
  {
   "bufferView": 75,
   "componentType": 5126,
   "count": 495,
   "max": [
    45.772499084472656,
    -33.33530044555664,
    -14.74505615234375
   ],
   "min": [
    31.754602432250977,
    -44.76430130004883,
    -60.37506103515625
   ],
   "type": "VEC3"
  },
  {
   "bufferView": 76,
   "componentType": 5126,
   "count": 495,
   "type": "VEC3"
  },
  {
   "bufferView": 77,
   "componentType": 5125,
   "count": 2298,
   "type": "SCALAR"
  },
  {
   "bufferView": 78,
   "componentType": 5126,
   "count": 282,
   "max": [
    41.21600341796875,
    -39.50029373168945,
    -22.95501708984375
   ],
   "min": [
    37.789398193359375,
    -43.938297271728516,
    -37.54510498046875
   ],
   "type": "VEC3"
  },
  {
   "bufferView": 79,
   "componentType": 5126,
   "count": 282,
   "type": "VEC3"
  },
  {
   "bufferView": 80,
   "componentType": 5125,
   "count": 1260,
   "type": "SCALAR"
  },
  {
   "bufferView": 81,
   "componentType": 5126,
   "count": 144,
   "max": [
    47.18009948730469,
    -29.901294708251953,
    -56.70501708984375
   ],
   "min": [
    41.391700744628906,
    -37.982303619384766,
    -59.63507080078125
   ],
   "type": "VEC3"
  },
  {
   "bufferView": 82,
   "componentType": 5126,
   "count": 144,
   "type": "VEC3"
  },
  {
   "bufferView": 83,
   "componentType": 5125,
   "count": 480,
   "type": "SCALAR"
  },
  {
   "bufferView": 84,
   "componentType": 5126,
   "count": 246,
   "max": [
    54.467002868652344,
    -27.821292877197266,
    -43.37506103515625
   ],
   "min": [
    49.385902404785156,
    -38.43930435180664,
    -49.96502685546875
   ],
   "type": "VEC3"
  },
  {
   "bufferView": 85,
   "componentType": 5126,
   "count": 246,
   "type": "VEC3"
  },
  {
   "bufferView": 86,
   "componentType": 5125,
   "count": 870,
   "type": "SCALAR"
  },
  {
   "bufferView": 87,
   "componentType": 5126,
   "count": 122,
   "max": [
    51.66510009765625,
    -21.16330337524414,
    -53.82501220703125
   ],
   "min": [
    49.567596435546875,
    -30.15329360961914,
    -58.78509521484375
   ],
   "type": "VEC3"
  },
  {
   "bufferView": 88,
   "componentType": 5126,
   "count": 122,
   "type": "VEC3"
  },
  {
   "bufferView": 89,
   "componentType": 5125,
   "count": 450,
   "type": "SCALAR"
  },
  {
   "bufferView": 90,
   "componentType": 5126,
   "count": 218,
   "max": [
    51.665000915527344,
    -22.691303253173828,
    -53.81500244140625
   ],
   "min": [
    45.870697021484375,
    -30.154300689697266,
    -62.91510009765625
   ],
   "type": "VEC3"
  },
  {
   "bufferView": 91,
   "componentType": 5126,
   "count": 218,
   "type": "VEC3"
  },
  {
   "bufferView": 92,
   "componentType": 5125,
   "count": 780,
   "type": "SCALAR"
  },
  {
   "bufferView": 93,
   "componentType": 5126,
   "count": 525,
   "max": [
    57.847496032714844,
    -9.92630386352539,
    1.24493408203125
   ],
   "min": [
    28.518800735473633,
    -24.097293853759766,
    -47.59503173828125
   ],
   "type": "VEC3"
  },
  {
   "bufferView": 94,
   "componentType": 5126,
   "count": 525,
   "type": "VEC3"
  },
  {
   "bufferView": 95,
   "componentType": 5125,
   "count": 2892,
   "type": "SCALAR"
  },
  {
   "bufferView": 96,
   "componentType": 5126,
   "count": 203,
   "max": [
    55.548797607421875,
    -17.62430191040039,
    -19.29510498046875
   ],
   "min": [
    52.81939697265625,
    -24.84030532836914,
    -32.27508544921875
   ],
   "type": "VEC3"
  },
  {
   "bufferView": 97,
   "componentType": 5126,
   "count": 203,
   "type": "VEC3"
  },
  {
   "bufferView": 98,
   "componentType": 5125,
   "count": 858,
   "type": "SCALAR"
  },
  {
   "bufferView": 99,
   "componentType": 5126,
   "count": 313,
   "max": [
    2.939401626586914,
    -35.91829299926758,
    3.06500244140625
   ],
   "min": [
    -21.126750946044922,
    -53.17329788208008,
    -20.12506103515625
   ],
   "type": "VEC3"
  },
  {
   "bufferView": 100,
   "componentType": 5126,
   "count": 313,
   "type": "VEC3"
  },
  {
   "bufferView": 101,
   "componentType": 5125,
   "count": 1434,
   "type": "SCALAR"
  },
  {
   "bufferView": 102,
   "componentType": 5126,
   "count": 243,
   "max": [
    12.070699691772461,
    -49.00229263305664,
    -9.89508056640625
   ],
   "min": [
    -10.224298477172852,
    -53.16530227661133,
    -19.86505126953125
   ],
   "type": "VEC3"
  },
  {
   "bufferView": 103,
   "componentType": 5126,
   "count": 243,
   "type": "VEC3"
  },
  {
   "bufferView": 104,
   "componentType": 5125,
   "count": 1014,
   "type": "SCALAR"
  },
  {
   "bufferView": 105,
   "componentType": 5126,
   "count": 198,
   "max": [
    12.633199691772461,
    -50.81630325317383,
    -10.92510986328125
   ],
   "min": [
    -0.6105976104736328,
    -52.969303131103516,
    -15.49505615234375
   ],
   "type": "VEC3"
  },
  {
   "bufferView": 106,
   "componentType": 5126,
   "count": 198,
   "type": "VEC3"
  },
  {
   "bufferView": 107,
   "componentType": 5125,
   "count": 756,
   "type": "SCALAR"
  },
  {
   "bufferView": 108,
   "componentType": 5126,
   "count": 482,
   "max": [
    46.778602600097656,
    29.976299285888672,
    -47.56500244140625
   ],
   "min": [
    -2.2047977447509766,
    -7.217304229736328,
    -64.36505126953125
   ],
   "type": "VEC3"
  },
  {
   "bufferView": 109,
   "componentType": 5126,
   "count": 482,
   "type": "VEC3"
  },
  {
   "bufferView": 110,
   "componentType": 5125,
   "count": 2382,
   "type": "SCALAR"
  },
  {
   "bufferView": 111,
   "componentType": 5126,
   "count": 185,
   "max": [
    52.048797607421875,
    -6.354297637939453,
    -55.50506591796875
   ],
   "min": [
    46.02159881591797,
    -11.152301788330078,
    -62.61505126953125
   ],
   "type": "VEC3"
  },
  {
   "bufferView": 112,
   "componentType": 5126,
   "count": 185,
   "type": "VEC3"
  },
  {
   "bufferView": 113,
   "componentType": 5125,
   "count": 654,
   "type": "SCALAR"
  },
  {
   "bufferView": 114,
   "componentType": 5126,
   "count": 188,
   "max": [
    50.53630065917969,
    -6.458301544189453,
    -57.48504638671875
   ],
   "min": [
    46.008399963378906,
    -15.763294219970703,
    -62.71502685546875
   ],
   "type": "VEC3"
  },
  {
   "bufferView": 115,
   "componentType": 5126,
   "count": 188,
   "type": "VEC3"
  },
  {
   "bufferView": 116,
   "componentType": 5125,
   "count": 696,
   "type": "SCALAR"
  },
  {
   "bufferView": 117,
   "componentType": 5126,
   "count": 259,
   "max": [
    20.78630256652832,
    34.71200180053711,
    -47.33502197265625
   ],
   "min": [
    4.68170166015625,
    28.104198455810547,
    -53.09503173828125
   ],
   "type": "VEC3"
  },
  {
   "bufferView": 118,
   "componentType": 5126,
   "count": 259,
   "type": "VEC3"
  },
  {
   "bufferView": 119,
   "componentType": 5125,
   "count": 1020,
   "type": "SCALAR"
  },
  {
   "bufferView": 120,
   "componentType": 5126,
   "count": 139,
   "max": [
    23.324899673461914,
    27.86819839477539,
    -54.29510498046875
   ],
   "min": [
    17.226701736450195,
    24.031002044677734,
    -58.25506591796875
   ],
   "type": "VEC3"
  },
  {
   "bufferView": 121,
   "componentType": 5126,
   "count": 139,
   "type": "VEC3"
  },
  {
   "bufferView": 122,
   "componentType": 5125,
   "count": 558,
   "type": "SCALAR"
  },
  {
   "bufferView": 123,
   "componentType": 5126,
   "count": 299,
   "max": [
    24.8960018157959,
    18.69070053100586,
    -60.80499267578125
   ],
   "min": [
    21.33070182800293,
    6.555698394775391,
    -66.16510009765625
   ],
   "type": "VEC3"
  },
  {
   "bufferView": 124,
   "componentType": 5126,
   "count": 299,
   "type": "VEC3"
  },
  {
   "bufferView": 125,
   "componentType": 5125,
   "count": 1140,
   "type": "SCALAR"
  },
  {
   "bufferView": 126,
   "componentType": 5126,
   "count": 233,
   "max": [
    43.65509796142578,
    16.489704132080078,
    -53.33502197265625
   ],
   "min": [
    31.826902389526367,
    14.038700103759766,
    -62.45501708984375
   ],
   "type": "VEC3"
  },
  {
   "bufferView": 127,
   "componentType": 5126,
   "count": 233,
   "type": "VEC3"
  },
  {
   "bufferView": 128,
   "componentType": 5125,
   "count": 960,
   "type": "SCALAR"
  },
  {
   "bufferView": 129,
   "componentType": 5126,
   "count": 198,
   "max": [
    50.78630065917969,
    7.449703216552734,
    -53.18499755859375
   ],
   "min": [
    40.28050231933594,
    3.342700958251953,
    -64.24505615234375
   ],
   "type": "VEC3"
  },
  {
   "bufferView": 130,
   "componentType": 5126,
   "count": 198,
   "type": "VEC3"
  },
  {
   "bufferView": 131,
   "componentType": 5125,
   "count": 768,
   "type": "SCALAR"
  },
  {
   "bufferView": 132,
   "componentType": 5126,
   "count": 244,
   "max": [
    41.98059844970703,
    6.412700653076172,
    -63.29510498046875
   ],
   "min": [
    39.44580078125,
    -11.05130386352539,
    -66.79510498046875
   ],
   "type": "VEC3"
  },
  {
   "bufferView": 133,
   "componentType": 5126,
   "count": 244,
   "type": "VEC3"
  },
  {
   "bufferView": 134,
   "componentType": 5125,
   "count": 960,
   "type": "SCALAR"
  },
  {
   "bufferView": 135,
   "componentType": 5126,
   "count": 91,
   "max": [
    28.41160011291504,
    -40.31129837036133,
    -11.90509033203125
   ],
   "min": [
    23.47380256652832,
    -44.71030044555664,
    -13.69500732421875
   ],
   "type": "VEC3"
  },
  {
   "bufferView": 136,
   "componentType": 5126,
   "count": 91,
   "type": "VEC3"
  },
  {
   "bufferView": 137,
   "componentType": 5125,
   "count": 324,
   "type": "SCALAR"
  },
  {
   "bufferView": 138,
   "componentType": 5126,
   "count": 224,
   "max": [
    31.599000930786133,
    -29.336292266845703,
    -6.86505126953125
   ],
   "min": [
    20.63319969177246,
    -47.73830032348633,
    -18.78509521484375
   ],
   "type": "VEC3"
  },
  {
   "bufferView": 139,
   "componentType": 5126,
   "count": 224,
   "type": "VEC3"
  },
  {
   "bufferView": 140,
   "componentType": 5125,
   "count": 954,
   "type": "SCALAR"
  },
  {
   "bufferView": 141,
   "componentType": 5126,
   "count": 434,
   "max": [
    27.018400192260742,
    41.420902252197266,
    11.09490966796875
   ],
   "min": [
    18.364999771118164,
    -3.5342979431152344,
    -28.58502197265625
   ],
   "type": "VEC3"
  },
  {
   "bufferView": 142,
   "componentType": 5126,
   "count": 434,
   "type": "VEC3"
  },
  {
   "bufferView": 143,
   "componentType": 5125,
   "count": 2478,
   "type": "SCALAR"
  },
  {
   "bufferView": 144,
   "componentType": 5126,
   "count": 484,
   "max": [
    15.23280143737793,
    -8.542301177978516,
    -49.57501220703125
   ],
   "min": [
    -14.37925910949707,
    -37.07429885864258,
    -63.92510986328125
   ],
   "type": "VEC3"
  },
  {
   "bufferView": 145,
   "componentType": 5126,
   "count": 484,
   "type": "VEC3"
  },
  {
   "bufferView": 146,
   "componentType": 5125,
   "count": 2076,
   "type": "SCALAR"
  },
  {
   "bufferView": 147,
   "componentType": 5126,
   "count": 708,
   "max": [
    19.377702713012695,
    -16.193302154541016,
    19.08489990234375
   ],
   "min": [
    1.5964012145996094,
    -36.2372932434082,
    2.53497314453125
   ],
   "type": "VEC3"
  },
  {
   "bufferView": 148,
   "componentType": 5126,
   "count": 708,
   "type": "VEC3"
  },
  {
   "bufferView": 149,
   "componentType": 5125,
   "count": 3816,
   "type": "SCALAR"
  },
  {
   "bufferView": 150,
   "componentType": 5126,
   "count": 526,
   "max": [
    10.844400405883789,
    16.933696746826172,
    12.71490478515625
   ],
   "min": [
    -4.946897506713867,
    -3.312297821044922,
    -1.66510009765625
   ],
   "type": "VEC3"
  },
  {
   "bufferView": 151,
   "componentType": 5126,
   "count": 526,
   "type": "VEC3"
  },
  {
   "bufferView": 152,
   "componentType": 5125,
   "count": 2742,
   "type": "SCALAR"
  },
  {
   "bufferView": 153,
   "componentType": 5126,
   "count": 267,
   "max": [
    12.433202743530273,
    -45.99429702758789,
    -37.51507568359375
   ],
   "min": [
    -8.246298789978027,
    -50.61929702758789,
    -46.72503662109375
   ],
   "type": "VEC3"
  },
  {
   "bufferView": 154,
   "componentType": 5126,
   "count": 267,
   "type": "VEC3"
  },
  {
   "bufferView": 155,
   "componentType": 5125,
   "count": 1080,
   "type": "SCALAR"
  },
  {
   "bufferView": 156,
   "componentType": 5126,
   "count": 176,
   "max": [
    14.173803329467773,
    -48.98830032348633,
    -36.57501220703125
   ],
   "min": [
    2.2185020446777344,
    -50.45329666137695,
    -40.78509521484375
   ],
   "type": "VEC3"
  },
  {
   "bufferView": 157,
   "componentType": 5126,
   "count": 176,
   "type": "VEC3"
  },
  {
   "bufferView": 158,
   "componentType": 5125,
   "count": 648,
   "type": "SCALAR"
  },
  {
   "bufferView": 159,
   "componentType": 5126,
   "count": 447,
   "max": [
    4.486301422119141,
    -35.23630142211914,
    -22.25506591796875
   ],
   "min": [
    -35.833396911621094,
    -49.805301666259766,
    -47.98504638671875
   ],
   "type": "VEC3"
  },
  {
   "bufferView": 160,
   "componentType": 5126,
   "count": 447,
   "type": "VEC3"
  },
  {
   "bufferView": 161,
   "componentType": 5125,
   "count": 2226,
   "type": "SCALAR"
  },
  {
   "bufferView": 162,
   "componentType": 5126,
   "count": 186,
   "max": [
    -5.9361982345581055,
    -44.48030471801758,
    -34.43499755859375
   ],
   "min": [
    -17.606597900390625,
    -47.60330581665039,
    -46.80499267578125
   ],
   "type": "VEC3"
  },
  {
   "bufferView": 163,
   "componentType": 5126,
   "count": 186,
   "type": "VEC3"
  },
  {
   "bufferView": 164,
   "componentType": 5125,
   "count": 852,
   "type": "SCALAR"
  },
  {
   "bufferView": 165,
   "componentType": 5126,
   "count": 148,
   "max": [
    -21.669937133789062,
    -40.73830032348633,
    -29.83502197265625
   ],
   "min": [
    -27.958559036254883,
    -43.068302154541016,
    -39.23504638671875
   ],
   "type": "VEC3"
  },
  {
   "bufferView": 166,
   "componentType": 5126,
   "count": 148,
   "type": "VEC3"
  },
  {
   "bufferView": 167,
   "componentType": 5125,
   "count": 600,
   "type": "SCALAR"
  },
  {
   "bufferView": 168,
   "componentType": 5126,
   "count": 573,
   "max": [
    19.05210304260254,
    -4.259296417236328,
    19.25494384765625
   ],
   "min": [
    2.0056018829345703,
    -18.865299224853516,
    2.82489013671875
   ],
   "type": "VEC3"
  },
  {
   "bufferView": 169,
   "componentType": 5126,
   "count": 573,
   "type": "VEC3"
  },
  {
   "bufferView": 170,
   "componentType": 5125,
   "count": 2988,
   "type": "SCALAR"
  },
  {
   "bufferView": 171,
   "componentType": 5126,
   "count": 608,
   "max": [
    44.02400207519531,
    4.138698577880859,
    -51.92510986328125
   ],
   "min": [
    -22.44060516357422,
    -27.70230484008789,
    -66.48504638671875
   ],
   "type": "VEC3"
  },
  {
   "bufferView": 172,
   "componentType": 5126,
   "count": 608,
   "type": "VEC3"
  },
  {
   "bufferView": 173,
   "componentType": 5125,
   "count": 2790,
   "type": "SCALAR"
  },
  {
   "bufferView": 174,
   "componentType": 5126,
   "count": 480,
   "max": [
    36.096900939941406,
    5.756702423095703,
    -50.96502685546875
   ],
   "min": [
    -22.324752807617188,
    -14.65829849243164,
    -67.44500732421875
   ],
   "type": "VEC3"
  },
  {
   "bufferView": 175,
   "componentType": 5126,
   "count": 480,
   "type": "VEC3"
  },
  {
   "bufferView": 176,
   "componentType": 5125,
   "count": 2298,
   "type": "SCALAR"
  },
  {
   "bufferView": 177,
   "componentType": 5126,
   "count": 305,
   "max": [
    12.934701919555664,
    5.251697540283203,
    -59.91510009765625
   ],
   "min": [
    -3.8044986724853516,
    0.9797019958496094,
    -64.58502197265625
   ],
   "type": "VEC3"
  },
  {
   "bufferView": 178,
   "componentType": 5126,
   "count": 305,
   "type": "VEC3"
  },
  {
   "bufferView": 179,
   "componentType": 5125,
   "count": 1272,
   "type": "SCALAR"
  },
  {
   "bufferView": 180,
   "componentType": 5126,
   "count": 163,
   "max": [
    24.934701919555664,
    -5.621295928955078,
    -63.71502685546875
   ],
   "min": [
    16.09760093688965,
    -11.437305450439453,
    -67.41510009765625
   ],
   "type": "VEC3"
  },
  {
   "bufferView": 181,
   "componentType": 5126,
   "count": 163,
   "type": "VEC3"
  },
  {
   "bufferView": 182,
   "componentType": 5125,
   "count": 708,
   "type": "SCALAR"
  },
  {
   "bufferView": 183,
   "componentType": 5126,
   "count": 286,
   "max": [
    10.034400939941406,
    -5.121295928955078,
    -61.06500244140625
   ],
   "min": [
    -4.087198257446289,
    -30.454303741455078,
    -64.39508056640625
   ],
   "type": "VEC3"
  },
  {
   "bufferView": 184,
   "componentType": 5126,
   "count": 286,
   "type": "VEC3"
  },
  {
   "bufferView": 185,
   "componentType": 5125,
   "count": 1008,
   "type": "SCALAR"
  },
  {
   "bufferView": 186,
   "componentType": 5126,
   "count": 188,
   "max": [
    20.014501571655273,
    -17.526294708251953,
    -63.83502197265625
   ],
   "min": [
    17.255300521850586,
    -30.016300201416016,
    -66.47503662109375
   ],
   "type": "VEC3"
  },
  {
   "bufferView": 187,
   "componentType": 5126,
   "count": 188,
   "type": "VEC3"
  },
  {
   "bufferView": 188,
   "componentType": 5125,
   "count": 660,
   "type": "SCALAR"
  },
  {
   "bufferView": 189,
   "componentType": 5126,
   "count": 195,
   "max": [
    23.567602157592773,
    -21.85330581665039,
    -63.45501708984375
   ],
   "min": [
    17.916101455688477,
    -30.826297760009766,
    -66.46502685546875
   ],
   "type": "VEC3"
  },
  {
   "bufferView": 190,
   "componentType": 5126,
   "count": 195,
   "type": "VEC3"
  },
  {
   "bufferView": 191,
   "componentType": 5125,
   "count": 600,
   "type": "SCALAR"
  },
  {
   "bufferView": 192,
   "componentType": 5126,
   "count": 126,
   "max": [
    45.33470153808594,
    -26.537296295166016,
    -60.89508056640625
   ],
   "min": [
    38.82780456542969,
    -30.091297149658203,
    -64.46502685546875
   ],
   "type": "VEC3"
  },
  {
   "bufferView": 193,
   "componentType": 5126,
   "count": 126,
   "type": "VEC3"
  },
  {
   "bufferView": 194,
   "componentType": 5125,
   "count": 378,
   "type": "SCALAR"
  },
  {
   "bufferView": 195,
   "componentType": 5126,
   "count": 197,
   "max": [
    41.195701599121094,
    -24.943302154541016,
    -60.87506103515625
   ],
   "min": [
    34.906105041503906,
    -32.52629470825195,
    -65.01507568359375
   ],
   "type": "VEC3"
  },
  {
   "bufferView": 196,
   "componentType": 5126,
   "count": 197,
   "type": "VEC3"
  },
  {
   "bufferView": 197,
   "componentType": 5125,
   "count": 840,
   "type": "SCALAR"
  },
  {
   "bufferView": 198,
   "componentType": 5126,
   "count": 2560,
   "max": [
    41.31050109863281,
    37.89909744262695,
    -10.71502685546875
   ],
   "min": [
    -7.969298362731934,
    0.07670211791992188,
    -42.76507568359375
   ],
   "type": "VEC3"
  },
  {
   "bufferView": 199,
   "componentType": 5126,
   "count": 2560,
   "type": "VEC3"
  },
  {
   "bufferView": 200,
   "componentType": 5125,
   "count": 11460,
   "type": "SCALAR"
  },
  {
   "bufferView": 201,
   "componentType": 5126,
   "count": 2729,
   "max": [
    -5.073698043823242,
    9.626697540283203,
    -26.16510009765625
   ],
   "min": [
    -40.5015983581543,
    -21.912296295166016,
    -53.72503662109375
   ],
   "type": "VEC3"
  },
  {
   "bufferView": 202,
   "componentType": 5126,
   "count": 2729,
   "type": "VEC3"
  },
  {
   "bufferView": 203,
   "componentType": 5125,
   "count": 14778,
   "type": "SCALAR"
  },
  {
   "bufferView": 204,
   "componentType": 5126,
   "count": 871,
   "max": [
    20.53120231628418,
    6.827701568603516,
    51.24493408203125
   ],
   "min": [
    -10.269098281860352,
    -35.52029800415039,
    14.13494873046875
   ],
   "type": "VEC3"
  },
  {
   "bufferView": 205,
   "componentType": 5126,
   "count": 871,
   "type": "VEC3"
  },
  {
   "bufferView": 206,
   "componentType": 5125,
   "count": 3906,
   "type": "SCALAR"
  },
  {
   "bufferView": 207,
   "componentType": 5126,
   "count": 769,
   "max": [
    5.980701446533203,
    -9.536304473876953,
    22.90496826171875
   ],
   "min": [
    -12.77586841583252,
    -33.52530288696289,
    5.70489501953125
   ],
   "type": "VEC3"
  },
  {
   "bufferView": 208,
   "componentType": 5126,
   "count": 769,
   "type": "VEC3"
  },
  {
   "bufferView": 209,
   "componentType": 5125,
   "count": 4110,
   "type": "SCALAR"
  },
  {
   "bufferView": 210,
   "componentType": 5126,
   "count": 280,
   "max": [
    5.326902389526367,
    -28.238300323486328,
    16.71490478515625
   ],
   "min": [
    -14.535888671875,
    -46.27829360961914,
    4.66497802734375
   ],
   "type": "VEC3"
  },
  {
   "bufferView": 211,
   "componentType": 5126,
   "count": 280,
   "type": "VEC3"
  },
  {
   "bufferView": 212,
   "componentType": 5125,
   "count": 1326,
   "type": "SCALAR"
  },
  {
   "bufferView": 213,
   "componentType": 5126,
   "count": 233,
   "max": [
    11.18010139465332,
    -39.8983039855957,
    15.27496337890625
   ],
   "min": [
    -3.1099987030029297,
    -42.149295806884766,
    11.07489013671875
   ],
   "type": "VEC3"
  },
  {
   "bufferView": 214,
   "componentType": 5126,
   "count": 233,
   "type": "VEC3"
  },
  {
   "bufferView": 215,
   "componentType": 5125,
   "count": 912,
   "type": "SCALAR"
  },
  {
   "bufferView": 216,
   "componentType": 5126,
   "count": 215,
   "max": [
    1.69580078125,
    18.517704010009766,
    8.15496826171875
   ],
   "min": [
    -15.876058578491211,
    -0.5032997131347656,
    -8.95501708984375
   ],
   "type": "VEC3"
  },
  {
   "bufferView": 217,
   "componentType": 5126,
   "count": 215,
   "type": "VEC3"
  },
  {
   "bufferView": 218,
   "componentType": 5125,
   "count": 948,
   "type": "SCALAR"
  },
  {
   "bufferView": 219,
   "componentType": 5126,
   "count": 287,
   "max": [
    33.00019836425781,
    -37.55330276489258,
    -20.06500244140625
   ],
   "min": [
    15.622602462768555,
    -49.422306060791016,
    -45.49505615234375
   ],
   "type": "VEC3"
  },
  {
   "bufferView": 220,
   "componentType": 5126,
   "count": 287,
   "type": "VEC3"
  },
  {
   "bufferView": 221,
   "componentType": 5125,
   "count": 1410,
   "type": "SCALAR"
  },
  {
   "bufferView": 222,
   "componentType": 5126,
   "count": 2591,
   "max": [
    7.957601547241211,
    9.770702362060547,
    -5.88507080078125
   ],
   "min": [
    -28.02779769897461,
    -14.401294708251953,
    -29.22503662109375
   ],
   "type": "VEC3"
  },
  {
   "bufferView": 223,
   "componentType": 5126,
   "count": 2591,
   "type": "VEC3"
  },
  {
   "bufferView": 224,
   "componentType": 5125,
   "count": 13578,
   "type": "SCALAR"
  },
  {
   "bufferView": 225,
   "componentType": 5126,
   "count": 539,
   "max": [
    10.630300521850586,
    -4.851306915283203,
    -2.19500732421875
   ],
   "min": [
    -8.65259838104248,
    -20.255298614501953,
    -28.90509033203125
   ],
   "type": "VEC3"
  },
  {
   "bufferView": 226,
   "componentType": 5126,
   "count": 539,
   "type": "VEC3"
  },
  {
   "bufferView": 227,
   "componentType": 5125,
   "count": 2532,
   "type": "SCALAR"
  },
  {
   "bufferView": 228,
   "componentType": 5126,
   "count": 294,
   "max": [
    -23.429258346557617,
    -23.875293731689453,
    -1.23504638671875
   ],
   "min": [
    -42.38389587402344,
    -37.08729934692383,
    -40.29510498046875
   ],
   "type": "VEC3"
  },
  {
   "bufferView": 229,
   "componentType": 5126,
   "count": 294,
   "type": "VEC3"
  },
  {
   "bufferView": 230,
   "componentType": 5125,
   "count": 1710,
   "type": "SCALAR"
  },
  {
   "bufferView": 231,
   "componentType": 5126,
   "count": 454,
   "max": [
    -15.548898696899414,
    8.986698150634766,
    -38.53509521484375
   ],
   "min": [
    -41.86029815673828,
    -25.584293365478516,
    -55.76507568359375
   ],
   "type": "VEC3"
  },
  {
   "bufferView": 232,
   "componentType": 5126,
   "count": 454,
   "type": "VEC3"
  },
  {
   "bufferView": 233,
   "componentType": 5125,
   "count": 2676,
   "type": "SCALAR"
  },
  {
   "bufferView": 234,
   "componentType": 5126,
   "count": 318,
   "max": [
    -25.653228759765625,
    19.756702423095703,
    67.44500732421875
   ],
   "min": [
    -48.17869567871094,
    -3.932300567626953,
    32.44500732421875
   ],
   "type": "VEC3"
  },
  {
   "bufferView": 235,
   "componentType": 5126,
   "count": 318,
   "type": "VEC3"
  },
  {
   "bufferView": 236,
   "componentType": 5125,
   "count": 1794,
   "type": "SCALAR"
  },
  {
   "bufferView": 237,
   "componentType": 5126,
   "count": 322,
   "max": [
    33.08330535888672,
    -35.24330520629883,
    -36.82501220703125
   ],
   "min": [
    24.725400924682617,
    -45.60530471801758,
    -60.69500732421875
   ],
   "type": "VEC3"
  },
  {
   "bufferView": 238,
   "componentType": 5126,
   "count": 322,
   "type": "VEC3"
  },
  {
   "bufferView": 239,
   "componentType": 5125,
   "count": 1326,
   "type": "SCALAR"
  },
  {
   "bufferView": 240,
   "componentType": 5126,
   "count": 216,
   "max": [
    25.560300827026367,
    -37.2422981262207,
    -50.10504150390625
   ],
   "min": [
    18.88319969177246,
    -43.89430618286133,
    -59.53509521484375
   ],
   "type": "VEC3"
  },
  {
   "bufferView": 241,
   "componentType": 5126,
   "count": 216,
   "type": "VEC3"
  },
  {
   "bufferView": 242,
   "componentType": 5125,
   "count": 918,
   "type": "SCALAR"
  },
  {
   "bufferView": 243,
   "componentType": 5126,
   "count": 1549,
   "max": [
    42.29750061035156,
    3.270702362060547,
    15.25494384765625
   ],
   "min": [
    11.749002456665039,
    -44.6642951965332,
    -62.82501220703125
   ],
   "type": "VEC3"
  },
  {
   "bufferView": 244,
   "componentType": 5126,
   "count": 1549,
   "type": "VEC3"
  },
  {
   "bufferView": 245,
   "componentType": 5125,
   "count": 9096,
   "type": "SCALAR"
  },
  {
   "bufferView": 246,
   "componentType": 5126,
   "count": 121,
   "max": [
    12.861200332641602,
    6.039699554443359,
    18.45489501953125
   ],
   "min": [
    1.8455009460449219,
    -0.08130264282226562,
    11.58489990234375
   ],
   "type": "VEC3"
  },
  {
   "bufferView": 247,
   "componentType": 5126,
   "count": 121,
   "type": "VEC3"
  },
  {
   "bufferView": 248,
   "componentType": 5125,
   "count": 612,
   "type": "SCALAR"
  },
  {
   "bufferView": 249,
   "componentType": 5126,
   "count": 2255,
   "max": [
    -0.8052978515625,
    30.039501190185547,
    18.70489501953125
   ],
   "min": [
    -43.29139709472656,
    -39.15030288696289,
    -54.42510986328125
   ],
   "type": "VEC3"
  },
  {
   "bufferView": 250,
   "componentType": 5126,
   "count": 2255,
   "type": "VEC3"
  },
  {
   "bufferView": 251,
   "componentType": 5125,
   "count": 13506,
   "type": "SCALAR"
  },
  {
   "bufferView": 252,
   "componentType": 5126,
   "count": 4284,
   "max": [
    41.695404052734375,
    53.17329788208008,
    30.03497314453125
   ],
   "min": [
    -44.42389678955078,
    -27.807300567626953,
    -42.93499755859375
   ],
   "type": "VEC3"
  },
  {
   "bufferView": 253,
   "componentType": 5126,
   "count": 4284,
   "type": "VEC3"
  },
  {
   "bufferView": 254,
   "componentType": 5125,
   "count": 22632,
   "type": "SCALAR"
  },
  {
   "bufferView": 255,
   "componentType": 5126,
   "count": 9887,
   "max": [
    -14.765888214111328,
    26.998699188232422,
    37.13494873046875
   ],
   "min": [
    -57.847496032714844,
    -39.30130386352539,
    -59.28509521484375
   ],
   "type": "VEC3"
  },
  {
   "bufferView": 256,
   "componentType": 5126,
   "count": 9887,
   "type": "VEC3"
  },
  {
   "bufferView": 257,
   "componentType": 5125,
   "count": 53352,
   "type": "SCALAR"
  }
 ],
 "asset": {
  "generator": "Cardiology app ingest pipeline (pipeline/ingest.py)",
  "version": "2.0"
 },
 "bufferViews": [
  {
   "buffer": 0,
   "byteLength": 7524,
   "byteOffset": 0,
   "target": 34962
  },
  {
   "buffer": 0,
   "byteLength": 7524,
   "byteOffset": 7524,
   "target": 34962
  },
  {
   "buffer": 0,
   "byteLength": 11640,
   "byteOffset": 15048,
   "target": 34963
  },
  {
   "buffer": 0,
   "byteLength": 2280,
   "byteOffset": 26688,
   "target": 34962
  },
  {
   "buffer": 0,
   "byteLength": 2280,
   "byteOffset": 28968,
   "target": 34962
  },
  {
   "buffer": 0,
   "byteLength": 3384,
   "byteOffset": 31248,
   "target": 34963
  },
  {
   "buffer": 0,
   "byteLength": 1872,
   "byteOffset": 34632,
   "target": 34962
  },
  {
   "buffer": 0,
   "byteLength": 1872,
   "byteOffset": 36504,
   "target": 34962
  },
  {
   "buffer": 0,
   "byteLength": 2664,
   "byteOffset": 38376,
   "target": 34963
  },
  {
   "buffer": 0,
   "byteLength": 6096,
   "byteOffset": 41040,
   "target": 34962
  },
  {
   "buffer": 0,
   "byteLength": 6096,
   "byteOffset": 47136,
   "target": 34962
  },
  {
   "buffer": 0,
   "byteLength": 11040,
   "byteOffset": 53232,
   "target": 34963
  },
  {
   "buffer": 0,
   "byteLength": 48624,
   "byteOffset": 64272,
   "target": 34962
  },
  {
   "buffer": 0,
   "byteLength": 48624,
   "byteOffset": 112896,
   "target": 34962
  },
  {
   "buffer": 0,
   "byteLength": 90696,
   "byteOffset": 161520,
   "target": 34963
  },
  {
   "buffer": 0,
   "byteLength": 51384,
   "byteOffset": 252216,
   "target": 34962
  },
  {
   "buffer": 0,
   "byteLength": 51384,
   "byteOffset": 303600,
   "target": 34962
  },
  {
   "buffer": 0,
   "byteLength": 97920,
   "byteOffset": 354984,
   "target": 34963
  },
  {
   "buffer": 0,
   "byteLength": 6960,
   "byteOffset": 452904,
   "target": 34962
  },
  {
   "buffer": 0,
   "byteLength": 6960,
   "byteOffset": 459864,
   "target": 34962
  },
  {
   "buffer": 0,
   "byteLength": 10584,
   "byteOffset": 466824,
   "target": 34963
  },
  {
   "buffer": 0,
   "byteLength": 5844,
   "byteOffset": 477408,
   "target": 34962
  },
  {
   "buffer": 0,
   "byteLength": 5844,
   "byteOffset": 483252,
   "target": 34962
  },
  {
   "buffer": 0,
   "byteLength": 9360,
   "byteOffset": 489096,
   "target": 34963
  },
  {
   "buffer": 0,
   "byteLength": 6384,
   "byteOffset": 498456,
   "target": 34962
  },
  {
   "buffer": 0,
   "byteLength": 6384,
   "byteOffset": 504840,
   "target": 34962
  },
  {
   "buffer": 0,
   "byteLength": 9792,
   "byteOffset": 511224,
   "target": 34963
  },
  {
   "buffer": 0,
   "byteLength": 2748,
   "byteOffset": 521016,
   "target": 34962
  },
  {
   "buffer": 0,
   "byteLength": 2748,
   "byteOffset": 523764,
   "target": 34962
  },
  {
   "buffer": 0,
   "byteLength": 4752,
   "byteOffset": 526512,
   "target": 34963
  },
  {
   "buffer": 0,
   "byteLength": 7044,
   "byteOffset": 531264,
   "target": 34962
  },
  {
   "buffer": 0,
   "byteLength": 7044,
   "byteOffset": 538308,
   "target": 34962
  },
  {
   "buffer": 0,
   "byteLength": 12768,
   "byteOffset": 545352,
   "target": 34963
  },
  {
   "buffer": 0,
   "byteLength": 10548,
   "byteOffset": 558120,
   "target": 34962
  },
  {
   "buffer": 0,
   "byteLength": 10548,
   "byteOffset": 568668,
   "target": 34962
  },
  {
   "buffer": 0,
   "byteLength": 20664,
   "byteOffset": 579216,
   "target": 34963
  },
  {
   "buffer": 0,
   "byteLength": 14316,
   "byteOffset": 599880,
   "target": 34962
  },
  {
   "buffer": 0,
   "byteLength": 14316,
   "byteOffset": 614196,
   "target": 34962
  },
  {
   "buffer": 0,
   "byteLength": 26928,
   "byteOffset": 628512,
   "target": 34963
  },
  {
   "buffer": 0,
   "byteLength": 11676,
   "byteOffset": 655440,
   "target": 34962
  },
  {
   "buffer": 0,
   "byteLength": 11676,
   "byteOffset": 667116,
   "target": 34962
  },
  {
   "buffer": 0,
   "byteLength": 23016,
   "byteOffset": 678792,
   "target": 34963
  },
  {
   "buffer": 0,
   "byteLength": 8304,
   "byteOffset": 701808,
   "target": 34962
  },
  {
   "buffer": 0,
   "byteLength": 8304,
   "byteOffset": 710112,
   "target": 34962
  },
  {
   "buffer": 0,
   "byteLength": 16560,
   "byteOffset": 718416,
   "target": 34963
  },
  {
   "buffer": 0,
   "byteLength": 3792,
   "byteOffset": 734976,
   "target": 34962
  },
  {
   "buffer": 0,
   "byteLength": 3792,
   "byteOffset": 738768,
   "target": 34962
  },
  {
   "buffer": 0,
   "byteLength": 4752,
   "byteOffset": 742560,
   "target": 34963
  },
  {
   "buffer": 0,
   "byteLength": 4740,
   "byteOffset": 747312,
   "target": 34962
  },
  {
   "buffer": 0,
   "byteLength": 4740,
   "byteOffset": 752052,
   "target": 34962
  },
  {
   "buffer": 0,
   "byteLength": 6120,
   "byteOffset": 756792,
   "target": 34963
  },
  {
   "buffer": 0,
   "byteLength": 2880,
   "byteOffset": 762912,
   "target": 34962
  },
  {
   "buffer": 0,
   "byteLength": 2880,
   "byteOffset": 765792,
   "target": 34962
  },
  {
   "buffer": 0,
   "byteLength": 3696,
   "byteOffset": 768672,
   "target": 34963
  },
  {
   "buffer": 0,
   "byteLength": 2784,
   "byteOffset": 772368,
   "target": 34962
  },
  {
   "buffer": 0,
   "byteLength": 2784,
   "byteOffset": 775152,
   "target": 34962
  },
  {
   "buffer": 0,
   "byteLength": 3024,
   "byteOffset": 777936,
   "target": 34963
  },
  {
   "buffer": 0,
   "byteLength": 1800,
   "byteOffset": 780960,
   "target": 34962
  },
  {
   "buffer": 0,
   "byteLength": 1800,
   "byteOffset": 782760,
   "target": 34962
  },
  {
   "buffer": 0,
   "byteLength": 2064,
   "byteOffset": 784560,
   "target": 34963
  },
  {
   "buffer": 0,
   "byteLength": 3228,
   "byteOffset": 786624,
   "target": 34962
  },
  {
   "buffer": 0,
   "byteLength": 3228,
   "byteOffset": 789852,
   "target": 34962
  },
  {
   "buffer": 0,
   "byteLength": 5736,
   "byteOffset": 793080,
   "target": 34963
  },
  {
   "buffer": 0,
   "byteLength": 2316,
   "byteOffset": 798816,
   "target": 34962
  },
  {
   "buffer": 0,
   "byteLength": 2316,
   "byteOffset": 801132,
   "target": 34962
  },
  {
   "buffer": 0,
   "byteLength": 3672,
   "byteOffset": 803448,
   "target": 34963
  },
  {
   "buffer": 0,
   "byteLength": 3972,
   "byteOffset": 807120,
   "target": 34962
  },
  {
   "buffer": 0,
   "byteLength": 3972,
   "byteOffset": 811092,
   "target": 34962
  },
  {
   "buffer": 0,
   "byteLength": 7488,
   "byteOffset": 815064,
   "target": 34963
  },
  {
   "buffer": 0,
   "byteLength": 3816,
   "byteOffset": 822552,
   "target": 34962
  },
  {
   "buffer": 0,
   "byteLength": 3816,
   "byteOffset": 826368,
   "target": 34962
  },
  {
   "buffer": 0,
   "byteLength": 5904,
   "byteOffset": 830184,
   "target": 34963
  },
  {
   "buffer": 0,
   "byteLength": 1896,
   "byteOffset": 836088,
   "target": 34962
  },
  {
   "buffer": 0,
   "byteLength": 1896,
   "byteOffset": 837984,
   "target": 34962
  },
  {
   "buffer": 0,
   "byteLength": 2352,
   "byteOffset": 839880,
   "target": 34963
  },
  {
   "buffer": 0,
   "byteLength": 5940,
   "byteOffset": 842232,
   "target": 34962
  },
  {
   "buffer": 0,
   "byteLength": 5940,
   "byteOffset": 848172,
   "target": 34962
  },
  {
   "buffer": 0,
   "byteLength": 9192,
   "byteOffset": 854112,
   "target": 34963
  },
  {
   "buffer": 0,
   "byteLength": 3384,
   "byteOffset": 863304,
   "target": 34962
  },
  {
   "buffer": 0,
   "byteLength": 3384,
   "byteOffset": 866688,
   "target": 34962
  },
  {
   "buffer": 0,
   "byteLength": 5040,
   "byteOffset": 870072,
   "target": 34963
  },
  {
   "buffer": 0,
   "byteLength": 1728,
   "byteOffset": 875112,
   "target": 34962
  },
  {
   "buffer": 0,
   "byteLength": 1728,
   "byteOffset": 876840,
   "target": 34962
  },
  {
   "buffer": 0,
   "byteLength": 1920,
   "byteOffset": 878568,
   "target": 34963
  },
  {
   "buffer": 0,
   "byteLength": 2952,
   "byteOffset": 880488,
   "target": 34962
  },
  {
   "buffer": 0,
   "byteLength": 2952,
   "byteOffset": 883440,
   "target": 34962
  },
  {
   "buffer": 0,
   "byteLength": 3480,
   "byteOffset": 886392,
   "target": 34963
  },
  {
   "buffer": 0,
   "byteLength": 1464,
   "byteOffset": 889872,
   "target": 34962
  },
  {
   "buffer": 0,
   "byteLength": 1464,
   "byteOffset": 891336,
   "target": 34962
  },
  {
   "buffer": 0,
   "byteLength": 1800,
   "byteOffset": 892800,
   "target": 34963
  },
  {
   "buffer": 0,
   "byteLength": 2616,
   "byteOffset": 894600,
   "target": 34962
  },
  {
   "buffer": 0,
   "byteLength": 2616,
   "byteOffset": 897216,
   "target": 34962
  },
  {
   "buffer": 0,
   "byteLength": 3120,
   "byteOffset": 899832,
   "target": 34963
  },
  {
   "buffer": 0,
   "byteLength": 6300,
   "byteOffset": 902952,
   "target": 34962
  },
  {
   "buffer": 0,
   "byteLength": 6300,
   "byteOffset": 909252,
   "target": 34962
  },
  {
   "buffer": 0,
   "byteLength": 11568,
   "byteOffset": 915552,
   "target": 34963
  },
  {
   "buffer": 0,
   "byteLength": 2436,
   "byteOffset": 927120,
   "target": 34962
  },
  {
   "buffer": 0,
   "byteLength": 2436,
   "byteOffset": 929556,
   "target": 34962
  },
  {
   "buffer": 0,
   "byteLength": 3432,
   "byteOffset": 931992,
   "target": 34963
  },
  {
   "buffer": 0,
   "byteLength": 3756,
   "byteOffset": 935424,
   "target": 34962
  },
  {
   "buffer": 0,
   "byteLength": 3756,
   "byteOffset": 939180,
   "target": 34962
  },
  {
   "buffer": 0,
   "byteLength": 5736,
   "byteOffset": 942936,
   "target": 34963
  },
  {
   "buffer": 0,
   "byteLength": 2916,
   "byteOffset": 948672,
   "target": 34962
  },
  {
   "buffer": 0,
   "byteLength": 2916,
   "byteOffset": 951588,
   "target": 34962
  },
  {
   "buffer": 0,
   "byteLength": 4056,
   "byteOffset": 954504,
   "target": 34963
  },
  {
   "buffer": 0,
   "byteLength": 2376,
   "byteOffset": 958560,
   "target": 34962
  },
  {
   "buffer": 0,
   "byteLength": 2376,
   "byteOffset": 960936,
   "target": 34962
  },
  {
   "buffer": 0,
   "byteLength": 3024,
   "byteOffset": 963312,
   "target": 34963
  },
  {
   "buffer": 0,
   "byteLength": 5784,
   "byteOffset": 966336,
   "target": 34962
  },
  {
   "buffer": 0,
   "byteLength": 5784,
   "byteOffset": 972120,
   "target": 34962
  },
  {
   "buffer": 0,
   "byteLength": 9528,
   "byteOffset": 977904,
   "target": 34963
  },
  {
   "buffer": 0,
   "byteLength": 2220,
   "byteOffset": 987432,
   "target": 34962
  },
  {
   "buffer": 0,
   "byteLength": 2220,
   "byteOffset": 989652,
   "target": 34962
  },
  {
   "buffer": 0,
   "byteLength": 2616,
   "byteOffset": 991872,
   "target": 34963
  },
  {
   "buffer": 0,
   "byteLength": 2256,
   "byteOffset": 994488,
   "target": 34962
  },
  {
   "buffer": 0,
   "byteLength": 2256,
   "byteOffset": 996744,
   "target": 34962
  },
  {
   "buffer": 0,
   "byteLength": 2784,
   "byteOffset": 999000,
   "target": 34963
  },
  {
   "buffer": 0,
   "byteLength": 3108,
   "byteOffset": 1001784,
   "target": 34962
  },
  {
   "buffer": 0,
   "byteLength": 3108,
   "byteOffset": 1004892,
   "target": 34962
  },
  {
   "buffer": 0,
   "byteLength": 4080,
   "byteOffset": 1008000,
   "target": 34963
  },
  {
   "buffer": 0,
   "byteLength": 1668,
   "byteOffset": 1012080,
   "target": 34962
  },
  {
   "buffer": 0,
   "byteLength": 1668,
   "byteOffset": 1013748,
   "target": 34962
  },
  {
   "buffer": 0,
   "byteLength": 2232,
   "byteOffset": 1015416,
   "target": 34963
  },
  {
   "buffer": 0,
   "byteLength": 3588,
   "byteOffset": 1017648,
   "target": 34962
  },
  {
   "buffer": 0,
   "byteLength": 3588,
   "byteOffset": 1021236,
   "target": 34962
  },
  {
   "buffer": 0,
   "byteLength": 4560,
   "byteOffset": 1024824,
   "target": 34963
  },
  {
   "buffer": 0,
   "byteLength": 2796,
   "byteOffset": 1029384,
   "target": 34962
  },
  {
   "buffer": 0,
   "byteLength": 2796,
   "byteOffset": 1032180,
   "target": 34962
  },
  {
   "buffer": 0,
   "byteLength": 3840,
   "byteOffset": 1034976,
   "target": 34963
  },
  {
   "buffer": 0,
   "byteLength": 2376,
   "byteOffset": 1038816,
   "target": 34962
  },
  {
   "buffer": 0,
   "byteLength": 2376,
   "byteOffset": 1041192,
   "target": 34962
  },
  {
   "buffer": 0,
   "byteLength": 3072,
   "byteOffset": 1043568,
   "target": 34963
  },
  {
   "buffer": 0,
   "byteLength": 2928,
   "byteOffset": 1046640,
   "target": 34962
  },
  {
   "buffer": 0,
   "byteLength": 2928,
   "byteOffset": 1049568,
   "target": 34962
  },
  {
   "buffer": 0,
   "byteLength": 3840,
   "byteOffset": 1052496,
   "target": 34963
  },
  {
   "buffer": 0,
   "byteLength": 1092,
   "byteOffset": 1056336,
   "target": 34962
  },
  {
   "buffer": 0,
   "byteLength": 1092,
   "byteOffset": 1057428,
   "target": 34962
  },
  {
   "buffer": 0,
   "byteLength": 1296,
   "byteOffset": 1058520,
   "target": 34963
  },
  {
   "buffer": 0,
   "byteLength": 2688,
   "byteOffset": 1059816,
   "target": 34962
  },
  {
   "buffer": 0,
   "byteLength": 2688,
   "byteOffset": 1062504,
   "target": 34962
  },
  {
   "buffer": 0,
   "byteLength": 3816,
   "byteOffset": 1065192,
   "target": 34963
  },
  {
   "buffer": 0,
   "byteLength": 5208,
   "byteOffset": 1069008,
   "target": 34962
  },
  {
   "buffer": 0,
   "byteLength": 5208,
   "byteOffset": 1074216,
   "target": 34962
  },
  {
   "buffer": 0,
   "byteLength": 9912,
   "byteOffset": 1079424,
   "target": 34963
  },
  {
   "buffer": 0,
   "byteLength": 5808,
   "byteOffset": 1089336,
   "target": 34962
  },
  {
   "buffer": 0,
   "byteLength": 5808,
   "byteOffset": 1095144,
   "target": 34962
  },
  {
   "buffer": 0,
   "byteLength": 8304,
   "byteOffset": 1100952,
   "target": 34963
  },
  {
   "buffer": 0,
   "byteLength": 8496,
   "byteOffset": 1109256,
   "target": 34962
  },
  {
   "buffer": 0,
   "byteLength": 8496,
   "byteOffset": 1117752,
   "target": 34962
  },
  {
   "buffer": 0,
   "byteLength": 15264,
   "byteOffset": 1126248,
   "target": 34963
  },
  {
   "buffer": 0,
   "byteLength": 6312,
   "byteOffset": 1141512,
   "target": 34962
  },
  {
   "buffer": 0,
   "byteLength": 6312,
   "byteOffset": 1147824,
   "target": 34962
  },
  {
   "buffer": 0,
   "byteLength": 10968,
   "byteOffset": 1154136,
   "target": 34963
  },
  {
   "buffer": 0,
   "byteLength": 3204,
   "byteOffset": 1165104,
   "target": 34962
  },
  {
   "buffer": 0,
   "byteLength": 3204,
   "byteOffset": 1168308,
   "target": 34962
  },
  {
   "buffer": 0,
   "byteLength": 4320,
   "byteOffset": 1171512,
   "target": 34963
  },
  {
   "buffer": 0,
   "byteLength": 2112,
   "byteOffset": 1175832,
   "target": 34962
  },
  {
   "buffer": 0,
   "byteLength": 2112,
   "byteOffset": 1177944,
   "target": 34962
  },
  {
   "buffer": 0,
   "byteLength": 2592,
   "byteOffset": 1180056,
   "target": 34963
  },
  {
   "buffer": 0,
   "byteLength": 5364,
   "byteOffset": 1182648,
   "target": 34962
  },
  {
   "buffer": 0,
   "byteLength": 5364,
   "byteOffset": 1188012,
   "target": 34962
  },
  {
   "buffer": 0,
   "byteLength": 8904,
   "byteOffset": 1193376,
   "target": 34963
  },
  {
   "buffer": 0,
   "byteLength": 2232,
   "byteOffset": 1202280,
   "target": 34962
  },
  {
   "buffer": 0,
   "byteLength": 2232,
   "byteOffset": 1204512,
   "target": 34962
  },
  {
   "buffer": 0,
   "byteLength": 3408,
   "byteOffset": 1206744,
   "target": 34963
  },
  {
   "buffer": 0,
   "byteLength": 1776,
   "byteOffset": 1210152,
   "target": 34962
  },
  {
   "buffer": 0,
   "byteLength": 1776,
   "byteOffset": 1211928,
   "target": 34962
  },
  {
   "buffer": 0,
   "byteLength": 2400,
   "byteOffset": 1213704,
   "target": 34963
  },
  {
   "buffer": 0,
   "byteLength": 6876,
   "byteOffset": 1216104,
   "target": 34962
  },
  {
   "buffer": 0,
   "byteLength": 6876,
   "byteOffset": 1222980,
   "target": 34962
  },
  {
   "buffer": 0,
   "byteLength": 11952,
   "byteOffset": 1229856,
   "target": 34963
  },
  {
   "buffer": 0,
   "byteLength": 7296,
   "byteOffset": 1241808,
   "target": 34962
  },
  {
   "buffer": 0,
   "byteLength": 7296,
   "byteOffset": 1249104,
   "target": 34962
  },
  {
   "buffer": 0,
   "byteLength": 11160,
   "byteOffset": 1256400,
   "target": 34963
  },
  {
   "buffer": 0,
   "byteLength": 5760,
   "byteOffset": 1267560,
   "target": 34962
  },
  {
   "buffer": 0,
   "byteLength": 5760,
   "byteOffset": 1273320,
   "target": 34962
  },
  {
   "buffer": 0,
   "byteLength": 9192,
   "byteOffset": 1279080,
   "target": 34963
  },
  {
   "buffer": 0,
   "byteLength": 3660,
   "byteOffset": 1288272,
   "target": 34962
  },
  {
   "buffer": 0,
   "byteLength": 3660,
   "byteOffset": 1291932,
   "target": 34962
  },
  {
   "buffer": 0,
   "byteLength": 5088,
   "byteOffset": 1295592,
   "target": 34963
  },
  {
   "buffer": 0,
   "byteLength": 1956,
   "byteOffset": 1300680,
   "target": 34962
  },
  {
   "buffer": 0,
   "byteLength": 1956,
   "byteOffset": 1302636,
   "target": 34962
  },
  {
   "buffer": 0,
   "byteLength": 2832,
   "byteOffset": 1304592,
   "target": 34963
  },
  {
   "buffer": 0,
   "byteLength": 3432,
   "byteOffset": 1307424,
   "target": 34962
  },
  {
   "buffer": 0,
   "byteLength": 3432,
   "byteOffset": 1310856,
   "target": 34962
  },
  {
   "buffer": 0,
   "byteLength": 4032,
   "byteOffset": 1314288,
   "target": 34963
  },
  {
   "buffer": 0,
   "byteLength": 2256,
   "byteOffset": 1318320,
   "target": 34962
  },
  {
   "buffer": 0,
   "byteLength": 2256,
   "byteOffset": 1320576,
   "target": 34962
  },
  {
   "buffer": 0,
   "byteLength": 2640,
   "byteOffset": 1322832,
   "target": 34963
  },
  {
   "buffer": 0,
   "byteLength": 2340,
   "byteOffset": 1325472,
   "target": 34962
  },
  {
   "buffer": 0,
   "byteLength": 2340,
   "byteOffset": 1327812,
   "target": 34962
  },
  {
   "buffer": 0,
   "byteLength": 2400,
   "byteOffset": 1330152,
   "target": 34963
  },
  {
   "buffer": 0,
   "byteLength": 1512,
   "byteOffset": 1332552,
   "target": 34962
  },
  {
   "buffer": 0,
   "byteLength": 1512,
   "byteOffset": 1334064,
   "target": 34962
  },
  {
   "buffer": 0,
   "byteLength": 1512,
   "byteOffset": 1335576,
   "target": 34963
  },
  {
   "buffer": 0,
   "byteLength": 2364,
   "byteOffset": 1337088,
   "target": 34962
  },
  {
   "buffer": 0,
   "byteLength": 2364,
   "byteOffset": 1339452,
   "target": 34962
  },
  {
   "buffer": 0,
   "byteLength": 3360,
   "byteOffset": 1341816,
   "target": 34963
  },
  {
   "buffer": 0,
   "byteLength": 30720,
   "byteOffset": 1345176,
   "target": 34962
  },
  {
   "buffer": 0,
   "byteLength": 30720,
   "byteOffset": 1375896,
   "target": 34962
  },
  {
   "buffer": 0,
   "byteLength": 45840,
   "byteOffset": 1406616,
   "target": 34963
  },
  {
   "buffer": 0,
   "byteLength": 32748,
   "byteOffset": 1452456,
   "target": 34962
  },
  {
   "buffer": 0,
   "byteLength": 32748,
   "byteOffset": 1485204,
   "target": 34962
  },
  {
   "buffer": 0,
   "byteLength": 59112,
   "byteOffset": 1517952,
   "target": 34963
  },
  {
   "buffer": 0,
   "byteLength": 10452,
   "byteOffset": 1577064,
   "target": 34962
  },
  {
   "buffer": 0,
   "byteLength": 10452,
   "byteOffset": 1587516,
   "target": 34962
  },
  {
   "buffer": 0,
   "byteLength": 15624,
   "byteOffset": 1597968,
   "target": 34963
  },
  {
   "buffer": 0,
   "byteLength": 9228,
   "byteOffset": 1613592,
   "target": 34962
  },
  {
   "buffer": 0,
   "byteLength": 9228,
   "byteOffset": 1622820,
   "target": 34962
  },
  {
   "buffer": 0,
   "byteLength": 16440,
   "byteOffset": 1632048,
   "target": 34963
  },
  {
   "buffer": 0,
   "byteLength": 3360,
   "byteOffset": 1648488,
   "target": 34962
  },
  {
   "buffer": 0,
   "byteLength": 3360,
   "byteOffset": 1651848,
   "target": 34962
  },
  {
   "buffer": 0,
   "byteLength": 5304,
   "byteOffset": 1655208,
   "target": 34963
  },
  {
   "buffer": 0,
   "byteLength": 2796,
   "byteOffset": 1660512,
   "target": 34962
  },
  {
   "buffer": 0,
   "byteLength": 2796,
   "byteOffset": 1663308,
   "target": 34962
  },
  {
   "buffer": 0,
   "byteLength": 3648,
   "byteOffset": 1666104,
   "target": 34963
  },
  {
   "buffer": 0,
   "byteLength": 2580,
   "byteOffset": 1669752,
   "target": 34962
  },
  {
   "buffer": 0,
   "byteLength": 2580,
   "byteOffset": 1672332,
   "target": 34962
  },
  {
   "buffer": 0,
   "byteLength": 3792,
   "byteOffset": 1674912,
   "target": 34963
  },
  {
   "buffer": 0,
   "byteLength": 3444,
   "byteOffset": 1678704,
   "target": 34962
  },
  {
   "buffer": 0,
   "byteLength": 3444,
   "byteOffset": 1682148,
   "target": 34962
  },
  {
   "buffer": 0,
   "byteLength": 5640,
   "byteOffset": 1685592,
   "target": 34963
  },
  {
   "buffer": 0,
   "byteLength": 31092,
   "byteOffset": 1691232,
   "target": 34962
  },
  {
   "buffer": 0,
   "byteLength": 31092,
   "byteOffset": 1722324,
   "target": 34962
  },
  {
   "buffer": 0,
   "byteLength": 54312,
   "byteOffset": 1753416,
   "target": 34963
  },
  {
   "buffer": 0,
   "byteLength": 6468,
   "byteOffset": 1807728,
   "target": 34962
  },
  {
   "buffer": 0,
   "byteLength": 6468,
   "byteOffset": 1814196,
   "target": 34962
  },
  {
   "buffer": 0,
   "byteLength": 10128,
   "byteOffset": 1820664,
   "target": 34963
  },
  {
   "buffer": 0,
   "byteLength": 3528,
   "byteOffset": 1830792,
   "target": 34962
  },
  {
   "buffer": 0,
   "byteLength": 3528,
   "byteOffset": 1834320,
   "target": 34962
  },
  {
   "buffer": 0,
   "byteLength": 6840,
   "byteOffset": 1837848,
   "target": 34963
  },
  {
   "buffer": 0,
   "byteLength": 5448,
   "byteOffset": 1844688,
   "target": 34962
  },
  {
   "buffer": 0,
   "byteLength": 5448,
   "byteOffset": 1850136,
   "target": 34962
  },
  {
   "buffer": 0,
   "byteLength": 10704,
   "byteOffset": 1855584,
   "target": 34963
  },
  {
   "buffer": 0,
   "byteLength": 3816,
   "byteOffset": 1866288,
   "target": 34962
  },
  {
   "buffer": 0,
   "byteLength": 3816,
   "byteOffset": 1870104,
   "target": 34962
  },
  {
   "buffer": 0,
   "byteLength": 7176,
   "byteOffset": 1873920,
   "target": 34963
  },
  {
   "buffer": 0,
   "byteLength": 3864,
   "byteOffset": 1881096,
   "target": 34962
  },
  {
   "buffer": 0,
   "byteLength": 3864,
   "byteOffset": 1884960,
   "target": 34962
  },
  {
   "buffer": 0,
   "byteLength": 5304,
   "byteOffset": 1888824,
   "target": 34963
  },
  {
   "buffer": 0,
   "byteLength": 2592,
   "byteOffset": 1894128,
   "target": 34962
  },
  {
   "buffer": 0,
   "byteLength": 2592,
   "byteOffset": 1896720,
   "target": 34962
  },
  {
   "buffer": 0,
   "byteLength": 3672,
   "byteOffset": 1899312,
   "target": 34963
  },
  {
   "buffer": 0,
   "byteLength": 18588,
   "byteOffset": 1902984,
   "target": 34962
  },
  {
   "buffer": 0,
   "byteLength": 18588,
   "byteOffset": 1921572,
   "target": 34962
  },
  {
   "buffer": 0,
   "byteLength": 36384,
   "byteOffset": 1940160,
   "target": 34963
  },
  {
   "buffer": 0,
   "byteLength": 1452,
   "byteOffset": 1976544,
   "target": 34962
  },
  {
   "buffer": 0,
   "byteLength": 1452,
   "byteOffset": 1977996,
   "target": 34962
  },
  {
   "buffer": 0,
   "byteLength": 2448,
   "byteOffset": 1979448,
   "target": 34963
  },
  {
   "buffer": 0,
   "byteLength": 27060,
   "byteOffset": 1981896,
   "target": 34962
  },
  {
   "buffer": 0,
   "byteLength": 27060,
   "byteOffset": 2008956,
   "target": 34962
  },
  {
   "buffer": 0,
   "byteLength": 54024,
   "byteOffset": 2036016,
   "target": 34963
  },
  {
   "buffer": 0,
   "byteLength": 51408,
   "byteOffset": 2090040,
   "target": 34962
  },
  {
   "buffer": 0,
   "byteLength": 51408,
   "byteOffset": 2141448,
   "target": 34962
  },
  {
   "buffer": 0,
   "byteLength": 90528,
   "byteOffset": 2192856,
   "target": 34963
  },
  {
   "buffer": 0,
   "byteLength": 118644,
   "byteOffset": 2283384,
   "target": 34962
  },
  {
   "buffer": 0,
   "byteLength": 118644,
   "byteOffset": 2402028,
   "target": 34962
  },
  {
   "buffer": 0,
   "byteLength": 213408,
   "byteOffset": 2520672,
   "target": 34963
  }
 ],
 "buffers": [
  {
   "byteLength": 2734080,
   "uri": "model.bin"
  }
 ],
 "meshes": [
  {
   "name": "anterior-cardiac-venous-tree-right-marginal-vein-fj2727",
   "primitives": [
    {
     "attributes": {
      "NORMAL": 1,
      "POSITION": 0
     },
     "indices": 2,
     "mode": 4
    }
   ]
  },
  {
   "name": "anterior-cardiac-venous-tree-right-marginal-vein-fj2728",
   "primitives": [
    {
     "attributes": {
      "NORMAL": 4,
      "POSITION": 3
     },
     "indices": 5,
     "mode": 4
    }
   ]
  },
  {
   "name": "anterior-cardiac-venous-tree-right-marginal-vein-fj2729",
   "primitives": [
    {
     "attributes": {
      "NORMAL": 7,
      "POSITION": 6
     },
     "indices": 8,
     "mode": 4
    }
   ]
  },
  {
   "name": "anterior-cusp-of-aortic-valve",
   "primitives": [
    {
     "attributes": {
      "NORMAL": 10,
      "POSITION": 9
     },
     "indices": 11,
     "mode": 4
    }
   ]
  },
  {
   "name": "anterior-leaflet-of-mitral-valve",
   "primitives": [
    {
     "attributes": {
      "NORMAL": 13,
      "POSITION": 12
     },
     "indices": 14,
     "mode": 4
    }
   ]
  },
  {
   "name": "anterior-leaflet-of-tricuspid-valve",
   "primitives": [
    {
     "attributes": {
      "NORMAL": 16,
      "POSITION": 15
     },
     "indices": 17,
     "mode": 4
    }
   ]
  },
  {
   "name": "anterior-papillary-muscle-of-right-ventricle-anterior-wall-of-right-ventricle",
   "primitives": [
    {
     "attributes": {
      "NORMAL": 19,
      "POSITION": 18
     },
     "indices": 20,
     "mode": 4
    }
   ]
  },
  {
   "name": "anterior-wall-of-left-ventricle-lateral-papillary-muscle-of-left-ventricle-6",
   "primitives": [
    {
     "attributes": {
      "NORMAL": 22,
      "POSITION": 21
     },
     "indices": 23,
     "mode": 4
    }
   ]
  },
  {
   "name": "anterolateral-head-of-lateral-papillary-muscle-of-left-ventricle-myocardial-zone-12",
   "primitives": [
    {
     "attributes": {
      "NORMAL": 25,
      "POSITION": 24
     },
     "indices": 26,
     "mode": 4
    }
   ]
  },
  {
   "name": "ascending-aorta",
   "primitives": [
    {
     "attributes": {
      "NORMAL": 28,
      "POSITION": 27
     },
     "indices": 29,
     "mode": 4
    }
   ]
  },
  {
   "name": "cavity-of-left-atrium",
   "primitives": [
    {
     "attributes": {
      "NORMAL": 31,
      "POSITION": 30
     },
     "indices": 32,
     "mode": 4
    }
   ]
  },
  {
   "name": "cavity-of-left-ventricle",
   "primitives": [
    {
     "attributes": {
      "NORMAL": 34,
      "POSITION": 33
     },
     "indices": 35,
     "mode": 4
    }
   ]
  },
  {
   "name": "cavity-of-right-atrium",
   "primitives": [
    {
     "attributes": {
      "NORMAL": 37,
      "POSITION": 36
     },
     "indices": 38,
     "mode": 4
    }
   ]
  },
  {
   "name": "cavity-of-right-ventricle",
   "primitives": [
    {
     "attributes": {
      "NORMAL": 40,
      "POSITION": 39
     },
     "indices": 41,
     "mode": 4
    }
   ]
  },
  {
   "name": "circumflex-branch-of-left-coronary-artery-fj2649",
   "primitives": [
    {
     "attributes": {
      "NORMAL": 43,
      "POSITION": 42
     },
     "indices": 44,
     "mode": 4
    }
   ]
  },
  {
   "name": "circumflex-branch-of-left-coronary-artery-fj2650",
   "primitives": [
    {
     "attributes": {
      "NORMAL": 46,
      "POSITION": 45
     },
     "indices": 47,
     "mode": 4
    }
   ]
  },
  {
   "name": "circumflex-branch-of-left-coronary-artery-fj2651",
   "primitives": [
    {
     "attributes": {
      "NORMAL": 49,
      "POSITION": 48
     },
     "indices": 50,
     "mode": 4
    }
   ]
  },
  {
   "name": "circumflex-branch-of-left-coronary-artery-fj2652",
   "primitives": [
    {
     "attributes": {
      "NORMAL": 52,
      "POSITION": 51
     },
     "indices": 53,
     "mode": 4
    }
   ]
  },
  {
   "name": "circumflex-branch-of-left-coronary-artery-fj2653",
   "primitives": [
    {
     "attributes": {
      "NORMAL": 55,
      "POSITION": 54
     },
     "indices": 56,
     "mode": 4
    }
   ]
  },
  {
   "name": "circumflex-branch-of-left-coronary-artery-fj2654",
   "primitives": [
    {
     "attributes": {
      "NORMAL": 58,
      "POSITION": 57
     },
     "indices": 59,
     "mode": 4
    }
   ]
  },
  {
   "name": "conus-branch-of-anterior-interventricular-branch-of-left-coronary-artery-fj2643",
   "primitives": [
    {
     "attributes": {
      "NORMAL": 61,
      "POSITION": 60
     },
     "indices": 62,
     "mode": 4
    }
   ]
  },
  {
   "name": "conus-branch-of-anterior-interventricular-branch-of-left-coronary-artery-fj2644",
   "primitives": [
    {
     "attributes": {
      "NORMAL": 64,
      "POSITION": 63
     },
     "indices": 65,
     "mode": 4
    }
   ]
  },
  {
   "name": "coronary-sinus",
   "primitives": [
    {
     "attributes": {
      "NORMAL": 67,
      "POSITION": 66
     },
     "indices": 68,
     "mode": 4
    }
   ]
  },
  {
   "name": "diagonal-branch-of-anterior-descending-branch-of-left-coronary-artery-fj2633",
   "primitives": [
    {
     "attributes": {
      "NORMAL": 70,
      "POSITION": 69
     },
     "indices": 71,
     "mode": 4
    }
   ]
  },
  {
   "name": "diagonal-branch-of-anterior-descending-branch-of-left-coronary-artery-fj2634",
   "primitives": [
    {
     "attributes": {
      "NORMAL": 73,
      "POSITION": 72
     },
     "indices": 74,
     "mode": 4
    }
   ]
  },
  {
   "name": "diagonal-branch-of-anterior-descending-branch-of-left-coronary-artery-fj2635",
   "primitives": [
    {
     "attributes": {
      "NORMAL": 76,
      "POSITION": 75
     },
     "indices": 77,
     "mode": 4
    }
   ]
  },
  {
   "name": "diagonal-branch-of-anterior-descending-branch-of-left-coronary-artery-fj2636",
   "primitives": [
    {
     "attributes": {
      "NORMAL": 79,
      "POSITION": 78
     },
     "indices": 80,
     "mode": 4
    }
   ]
  },
  {
   "name": "diagonal-branch-of-anterior-descending-branch-of-left-coronary-artery-fj2637",
   "primitives": [
    {
     "attributes": {
      "NORMAL": 82,
      "POSITION": 81
     },
     "indices": 83,
     "mode": 4
    }
   ]
  },
  {
   "name": "diagonal-branch-of-anterior-descending-branch-of-left-coronary-artery-fj2638",
   "primitives": [
    {
     "attributes": {
      "NORMAL": 85,
      "POSITION": 84
     },
     "indices": 86,
     "mode": 4
    }
   ]
  },
  {
   "name": "diagonal-branch-of-anterior-descending-branch-of-left-coronary-artery-fj2639",
   "primitives": [
    {
     "attributes": {
      "NORMAL": 88,
      "POSITION": 87
     },
     "indices": 89,
     "mode": 4
    }
   ]
  },
  {
   "name": "diagonal-branch-of-anterior-descending-branch-of-left-coronary-artery-fj2640",
   "primitives": [
    {
     "attributes": {
      "NORMAL": 91,
      "POSITION": 90
     },
     "indices": 92,
     "mode": 4
    }
   ]
  },
  {
   "name": "diagonal-branch-of-anterior-descending-branch-of-left-coronary-artery-fj2642",
   "primitives": [
    {
     "attributes": {
      "NORMAL": 94,
      "POSITION": 93
     },
     "indices": 95,
     "mode": 4
    }
   ]
  },
  {
   "name": "diagonal-branch-of-anterior-descending-branch-of-left-coronary-artery-fj2648",
   "primitives": [
    {
     "attributes": {
      "NORMAL": 97,
      "POSITION": 96
     },
     "indices": 98,
     "mode": 4
    }
   ]
  },
  {
   "name": "first-anterior-ventricular-branch-of-right-coronary-artery-fj2671",
   "primitives": [
    {
     "attributes": {
      "NORMAL": 100,
      "POSITION": 99
     },
     "indices": 101,
     "mode": 4
    }
   ]
  },
  {
   "name": "first-anterior-ventricular-branch-of-right-coronary-artery-fj2673",
   "primitives": [
    {
     "attributes": {
      "NORMAL": 103,
      "POSITION": 102
     },
     "indices": 104,
     "mode": 4
    }
   ]
  },
  {
   "name": "first-anterior-ventricular-branch-of-right-coronary-artery-fj2677",
   "primitives": [
    {
     "attributes": {
      "NORMAL": 106,
      "POSITION": 105
     },
     "indices": 107,
     "mode": 4
    }
   ]
  },
  {
   "name": "first-posterior-ventricular-branch-of-right-coronary-artery-fj2714",
   "primitives": [
    {
     "attributes": {
      "NORMAL": 109,
      "POSITION": 108
     },
     "indices": 110,
     "mode": 4
    }
   ]
  },
  {
   "name": "first-posterior-ventricular-branch-of-right-coronary-artery-fj2715",
   "primitives": [
    {
     "attributes": {
      "NORMAL": 112,
      "POSITION": 111
     },
     "indices": 113,
     "mode": 4
    }
   ]
  },
  {
   "name": "first-posterior-ventricular-branch-of-right-coronary-artery-fj2716",
   "primitives": [
    {
     "attributes": {
      "NORMAL": 115,
      "POSITION": 114
     },
     "indices": 116,
     "mode": 4
    }
   ]
  },
  {
   "name": "first-posterior-ventricular-branch-of-right-coronary-artery-fj2717",
   "primitives": [
    {
     "attributes": {
      "NORMAL": 118,
      "POSITION": 117
     },
     "indices": 119,
     "mode": 4
    }
   ]
  },
  {
   "name": "first-posterior-ventricular-branch-of-right-coronary-artery-fj2718",
   "primitives": [
    {
     "attributes": {
      "NORMAL": 121,
      "POSITION": 120
     },
     "indices": 122,
     "mode": 4
    }
   ]
  },
  {
   "name": "first-posterior-ventricular-branch-of-right-coronary-artery-fj2719",
   "primitives": [
    {
     "attributes": {
      "NORMAL": 124,
      "POSITION": 123
     },
     "indices": 125,
     "mode": 4
    }
   ]
  },
  {
   "name": "first-posterior-ventricular-branch-of-right-coronary-artery-fj2720",
   "primitives": [
    {
     "attributes": {
      "NORMAL": 127,
      "POSITION": 126
     },
     "indices": 128,
     "mode": 4
    }
   ]
  },
  {
   "name": "first-posterior-ventricular-branch-of-right-coronary-artery-fj2721",
   "primitives": [
    {
     "attributes": {
      "NORMAL": 130,
      "POSITION": 129
     },
     "indices": 131,
     "mode": 4
    }
   ]
  },
  {
   "name": "first-posterior-ventricular-branch-of-right-coronary-artery-fj2722",
   "primitives": [
    {
     "attributes": {
      "NORMAL": 133,
      "POSITION": 132
     },
     "indices": 134,
     "mode": 4
    }
   ]
  },
  {
   "name": "first-right-anterior-branch-of-anterior-interventricular-branch-of-left-coronary-artery-fj2632",
   "primitives": [
    {
     "attributes": {
      "NORMAL": 136,
      "POSITION": 135
     },
     "indices": 137,
     "mode": 4
    }
   ]
  },
  {
   "name": "first-right-anterior-branch-of-anterior-interventricular-branch-of-left-coronary-artery-fj2645",
   "primitives": [
    {
     "attributes": {
      "NORMAL": 139,
      "POSITION": 138
     },
     "indices": 140,
     "mode": 4
    }
   ]
  },
  {
   "name": "great-cardiac-vein",
   "primitives": [
    {
     "attributes": {
      "NORMAL": 142,
      "POSITION": 141
     },
     "indices": 143,
     "mode": 4
    }
   ]
  },
  {
   "name": "inferior-wall-of-right-ventricle-posterior-papillary-muscle-of-right-ventricle",
   "primitives": [
    {
     "attributes": {
      "NORMAL": 145,
      "POSITION": 144
     },
     "indices": 146,
     "mode": 4
    }
   ]
  },
  {
   "name": "left-anterior-cusp-of-pulmonary-valve",
   "primitives": [
    {
     "attributes": {
      "NORMAL": 148,
      "POSITION": 147
     },
     "indices": 149,
     "mode": 4
    }
   ]
  },
  {
   "name": "left-posterior-cusp-of-aortic-valve",
   "primitives": [
    {
     "attributes": {
      "NORMAL": 151,
      "POSITION": 150
     },
     "indices": 152,
     "mode": 4
    }
   ]
  },
  {
   "name": "marginal-branch-of-right-coronary-artery-fj2667",
   "primitives": [
    {
     "attributes": {
      "NORMAL": 154,
      "POSITION": 153
     },
     "indices": 155,
     "mode": 4
    }
   ]
  },
  {
   "name": "marginal-branch-of-right-coronary-artery-fj2668",
   "primitives": [
    {
     "attributes": {
      "NORMAL": 157,
      "POSITION": 156
     },
     "indices": 158,
     "mode": 4
    }
   ]
  },
  {
   "name": "marginal-branch-of-right-coronary-artery-fj2672",
   "primitives": [
    {
     "attributes": {
      "NORMAL": 160,
      "POSITION": 159
     },
     "indices": 161,
     "mode": 4
    }
   ]
  },
  {
   "name": "marginal-branch-of-right-coronary-artery-fj2674",
   "primitives": [
    {
     "attributes": {
      "NORMAL": 163,
      "POSITION": 162
     },
     "indices": 164,
     "mode": 4
    }
   ]
  },
  {
   "name": "marginal-branch-of-right-coronary-artery-fj2675",
   "primitives": [
    {
     "attributes": {
      "NORMAL": 166,
      "POSITION": 165
     },
     "indices": 167,
     "mode": 4
    }
   ]
  },
  {
   "name": "posterior-cusp-of-pulmonary-valve",
   "primitives": [
    {
     "attributes": {
      "NORMAL": 169,
      "POSITION": 168
     },
     "indices": 170,
     "mode": 4
    }
   ]
  },
  {
   "name": "posterior-interventricular-branch-of-right-coronary-artery-fj2692",
   "primitives": [
    {
     "attributes": {
      "NORMAL": 172,
      "POSITION": 171
     },
     "indices": 173,
     "mode": 4
    }
   ]
  },
  {
   "name": "posterior-interventricular-branch-of-right-coronary-artery-fj2693",
   "primitives": [
    {
     "attributes": {
      "NORMAL": 175,
      "POSITION": 174
     },
     "indices": 176,
     "mode": 4
    }
   ]
  },
  {
   "name": "posterior-interventricular-branch-of-right-coronary-artery-fj2694",
   "primitives": [
    {
     "attributes": {
      "NORMAL": 178,
      "POSITION": 177
     },
     "indices": 179,
     "mode": 4
    }
   ]
  },
  {
   "name": "posterior-interventricular-branch-of-right-coronary-artery-fj2695",
   "primitives": [
    {
     "attributes": {
      "NORMAL": 181,
      "POSITION": 180
     },
     "indices": 182,
     "mode": 4
    }
   ]
  },
  {
   "name": "posterior-interventricular-branch-of-right-coronary-artery-fj2696",
   "primitives": [
    {
     "attributes": {
      "NORMAL": 184,
      "POSITION": 183
     },
     "indices": 185,
     "mode": 4
    }
   ]
  },
  {
   "name": "posterior-interventricular-branch-of-right-coronary-artery-fj2697",
   "primitives": [
    {
     "attributes": {
      "NORMAL": 187,
      "POSITION": 186
     },
     "indices": 188,
     "mode": 4
    }
   ]
  },
  {
   "name": "posterior-interventricular-branch-of-right-coronary-artery-fj2698",
   "primitives": [
    {
     "attributes": {
      "NORMAL": 190,
      "POSITION": 189
     },
     "indices": 191,
     "mode": 4
    }
   ]
  },
  {
   "name": "posterior-interventricular-branch-of-right-coronary-artery-fj2699",
   "primitives": [
    {
     "attributes": {
      "NORMAL": 193,
      "POSITION": 192
     },
     "indices": 194,
     "mode": 4
    }
   ]
  },
  {
   "name": "posterior-interventricular-branch-of-right-coronary-artery-fj2700",
   "primitives": [
    {
     "attributes": {
      "NORMAL": 196,
      "POSITION": 195
     },
     "indices": 197,
     "mode": 4
    }
   ]
  },
  {
   "name": "posterior-leaflet-of-mitral-valve-inferior-wall-of-left-ventricle-2",
   "primitives": [
    {
     "attributes": {
      "NORMAL": 199,
      "POSITION": 198
     },
     "indices": 200,
     "mode": 4
    }
   ]
  },
  {
   "name": "posterior-leaflet-of-tricuspid-valve",
   "primitives": [
    {
     "attributes": {
      "NORMAL": 202,
      "POSITION": 201
     },
     "indices": 203,
     "mode": 4
    }
   ]
  },
  {
   "name": "pulmonary-trunk",
   "primitives": [
    {
     "attributes": {
      "NORMAL": 205,
      "POSITION": 204
     },
     "indices": 206,
     "mode": 4
    }
   ]
  },
  {
   "name": "right-anterior-cusp-of-pulmonary-valve",
   "primitives": [
    {
     "attributes": {
      "NORMAL": 208,
      "POSITION": 207
     },
     "indices": 209,
     "mode": 4
    }
   ]
  },
  {
   "name": "right-conus-artery-fj2670",
   "primitives": [
    {
     "attributes": {
      "NORMAL": 211,
      "POSITION": 210
     },
     "indices": 212,
     "mode": 4
    }
   ]
  },
  {
   "name": "right-conus-artery-fj2676",
   "primitives": [
    {
     "attributes": {
      "NORMAL": 214,
      "POSITION": 213
     },
     "indices": 215,
     "mode": 4
    }
   ]
  },
  {
   "name": "right-posterior-cusp-of-aortic-valve",
   "primitives": [
    {
     "attributes": {
      "NORMAL": 217,
      "POSITION": 216
     },
     "indices": 218,
     "mode": 4
    }
   ]
  },
  {
   "name": "second-right-anterior-branch-of-anterior-interventricular-branch-of-left-coronary-artery",
   "primitives": [
    {
     "attributes": {
      "NORMAL": 220,
      "POSITION": 219
     },
     "indices": 221,
     "mode": 4
    }
   ]
  },
  {
   "name": "septal-leaflet-of-tricuspid-valve",
   "primitives": [
    {
     "attributes": {
      "NORMAL": 223,
      "POSITION": 222
     },
     "indices": 224,
     "mode": 4
    }
   ]
  },
  {
   "name": "septal-papillary-muscle-of-right-ventricle",
   "primitives": [
    {
     "attributes": {
      "NORMAL": 226,
      "POSITION": 225
     },
     "indices": 227,
     "mode": 4
    }
   ]
  },
  {
   "name": "small-cardiac-vein-fj2724",
   "primitives": [
    {
     "attributes": {
      "NORMAL": 229,
      "POSITION": 228
     },
     "indices": 230,
     "mode": 4
    }
   ]
  },
  {
   "name": "small-cardiac-vein-fj2731",
   "primitives": [
    {
     "attributes": {
      "NORMAL": 232,
      "POSITION": 231
     },
     "indices": 233,
     "mode": 4
    }
   ]
  },
  {
   "name": "superior-vena-cava",
   "primitives": [
    {
     "attributes": {
      "NORMAL": 235,
      "POSITION": 234
     },
     "indices": 236,
     "mode": 4
    }
   ]
  },
  {
   "name": "third-right-anterior-branch-of-anterior-interventricular-branch-of-left-coronary-artery-fj2641",
   "primitives": [
    {
     "attributes": {
      "NORMAL": 238,
      "POSITION": 237
     },
     "indices": 239,
     "mode": 4
    }
   ]
  },
  {
   "name": "third-right-anterior-branch-of-anterior-interventricular-branch-of-left-coronary-artery-fj2647",
   "primitives": [
    {
     "attributes": {
      "NORMAL": 241,
      "POSITION": 240
     },
     "indices": 242,
     "mode": 4
    }
   ]
  },
  {
   "name": "trunk-of-anterior-interventricular-branch-of-left-coronary-artery",
   "primitives": [
    {
     "attributes": {
      "NORMAL": 244,
      "POSITION": 243
     },
     "indices": 245,
     "mode": 4
    }
   ]
  },
  {
   "name": "trunk-of-left-coronary-artery",
   "primitives": [
    {
     "attributes": {
      "NORMAL": 247,
      "POSITION": 246
     },
     "indices": 248,
     "mode": 4
    }
   ]
  },
  {
   "name": "trunk-of-right-coronary-artery",
   "primitives": [
    {
     "attributes": {
      "NORMAL": 250,
      "POSITION": 249
     },
     "indices": 251,
     "mode": 4
    }
   ]
  },
  {
   "name": "wall-of-left-atrium",
   "primitives": [
    {
     "attributes": {
      "NORMAL": 253,
      "POSITION": 252
     },
     "indices": 254,
     "mode": 4
    }
   ]
  },
  {
   "name": "wall-of-right-atrium",
   "primitives": [
    {
     "attributes": {
      "NORMAL": 256,
      "POSITION": 255
     },
     "indices": 257,
     "mode": 4
    }
   ]
  }
 ],
 "nodes": [
  {
   "mesh": 0,
   "name": "anterior-cardiac-venous-tree-right-marginal-vein-fj2727"
  },
  {
   "mesh": 1,
   "name": "anterior-cardiac-venous-tree-right-marginal-vein-fj2728"
  },
  {
   "mesh": 2,
   "name": "anterior-cardiac-venous-tree-right-marginal-vein-fj2729"
  },
  {
   "mesh": 3,
   "name": "anterior-cusp-of-aortic-valve"
  },
  {
   "mesh": 4,
   "name": "anterior-leaflet-of-mitral-valve"
  },
  {
   "mesh": 5,
   "name": "anterior-leaflet-of-tricuspid-valve"
  },
  {
   "mesh": 6,
   "name": "anterior-papillary-muscle-of-right-ventricle-anterior-wall-of-right-ventricle"
  },
  {
   "mesh": 7,
   "name": "anterior-wall-of-left-ventricle-lateral-papillary-muscle-of-left-ventricle-6"
  },
  {
   "mesh": 8,
   "name": "anterolateral-head-of-lateral-papillary-muscle-of-left-ventricle-myocardial-zone-12"
  },
  {
   "mesh": 9,
   "name": "ascending-aorta"
  },
  {
   "mesh": 10,
   "name": "cavity-of-left-atrium"
  },
  {
   "mesh": 11,
   "name": "cavity-of-left-ventricle"
  },
  {
   "mesh": 12,
   "name": "cavity-of-right-atrium"
  },
  {
   "mesh": 13,
   "name": "cavity-of-right-ventricle"
  },
  {
   "mesh": 14,
   "name": "circumflex-branch-of-left-coronary-artery-fj2649"
  },
  {
   "mesh": 15,
   "name": "circumflex-branch-of-left-coronary-artery-fj2650"
  },
  {
   "mesh": 16,
   "name": "circumflex-branch-of-left-coronary-artery-fj2651"
  },
  {
   "mesh": 17,
   "name": "circumflex-branch-of-left-coronary-artery-fj2652"
  },
  {
   "mesh": 18,
   "name": "circumflex-branch-of-left-coronary-artery-fj2653"
  },
  {
   "mesh": 19,
   "name": "circumflex-branch-of-left-coronary-artery-fj2654"
  },
  {
   "mesh": 20,
   "name": "conus-branch-of-anterior-interventricular-branch-of-left-coronary-artery-fj2643"
  },
  {
   "mesh": 21,
   "name": "conus-branch-of-anterior-interventricular-branch-of-left-coronary-artery-fj2644"
  },
  {
   "mesh": 22,
   "name": "coronary-sinus"
  },
  {
   "mesh": 23,
   "name": "diagonal-branch-of-anterior-descending-branch-of-left-coronary-artery-fj2633"
  },
  {
   "mesh": 24,
   "name": "diagonal-branch-of-anterior-descending-branch-of-left-coronary-artery-fj2634"
  },
  {
   "mesh": 25,
   "name": "diagonal-branch-of-anterior-descending-branch-of-left-coronary-artery-fj2635"
  },
  {
   "mesh": 26,
   "name": "diagonal-branch-of-anterior-descending-branch-of-left-coronary-artery-fj2636"
  },
  {
   "mesh": 27,
   "name": "diagonal-branch-of-anterior-descending-branch-of-left-coronary-artery-fj2637"
  },
  {
   "mesh": 28,
   "name": "diagonal-branch-of-anterior-descending-branch-of-left-coronary-artery-fj2638"
  },
  {
   "mesh": 29,
   "name": "diagonal-branch-of-anterior-descending-branch-of-left-coronary-artery-fj2639"
  },
  {
   "mesh": 30,
   "name": "diagonal-branch-of-anterior-descending-branch-of-left-coronary-artery-fj2640"
  },
  {
   "mesh": 31,
   "name": "diagonal-branch-of-anterior-descending-branch-of-left-coronary-artery-fj2642"
  },
  {
   "mesh": 32,
   "name": "diagonal-branch-of-anterior-descending-branch-of-left-coronary-artery-fj2648"
  },
  {
   "mesh": 33,
   "name": "first-anterior-ventricular-branch-of-right-coronary-artery-fj2671"
  },
  {
   "mesh": 34,
   "name": "first-anterior-ventricular-branch-of-right-coronary-artery-fj2673"
  },
  {
   "mesh": 35,
   "name": "first-anterior-ventricular-branch-of-right-coronary-artery-fj2677"
  },
  {
   "mesh": 36,
   "name": "first-posterior-ventricular-branch-of-right-coronary-artery-fj2714"
  },
  {
   "mesh": 37,
   "name": "first-posterior-ventricular-branch-of-right-coronary-artery-fj2715"
  },
  {
   "mesh": 38,
   "name": "first-posterior-ventricular-branch-of-right-coronary-artery-fj2716"
  },
  {
   "mesh": 39,
   "name": "first-posterior-ventricular-branch-of-right-coronary-artery-fj2717"
  },
  {
   "mesh": 40,
   "name": "first-posterior-ventricular-branch-of-right-coronary-artery-fj2718"
  },
  {
   "mesh": 41,
   "name": "first-posterior-ventricular-branch-of-right-coronary-artery-fj2719"
  },
  {
   "mesh": 42,
   "name": "first-posterior-ventricular-branch-of-right-coronary-artery-fj2720"
  },
  {
   "mesh": 43,
   "name": "first-posterior-ventricular-branch-of-right-coronary-artery-fj2721"
  },
  {
   "mesh": 44,
   "name": "first-posterior-ventricular-branch-of-right-coronary-artery-fj2722"
  },
  {
   "mesh": 45,
   "name": "first-right-anterior-branch-of-anterior-interventricular-branch-of-left-coronary-artery-fj2632"
  },
  {
   "mesh": 46,
   "name": "first-right-anterior-branch-of-anterior-interventricular-branch-of-left-coronary-artery-fj2645"
  },
  {
   "mesh": 47,
   "name": "great-cardiac-vein"
  },
  {
   "mesh": 48,
   "name": "inferior-wall-of-right-ventricle-posterior-papillary-muscle-of-right-ventricle"
  },
  {
   "mesh": 49,
   "name": "left-anterior-cusp-of-pulmonary-valve"
  },
  {
   "mesh": 50,
   "name": "left-posterior-cusp-of-aortic-valve"
  },
  {
   "mesh": 51,
   "name": "marginal-branch-of-right-coronary-artery-fj2667"
  },
  {
   "mesh": 52,
   "name": "marginal-branch-of-right-coronary-artery-fj2668"
  },
  {
   "mesh": 53,
   "name": "marginal-branch-of-right-coronary-artery-fj2672"
  },
  {
   "mesh": 54,
   "name": "marginal-branch-of-right-coronary-artery-fj2674"
  },
  {
   "mesh": 55,
   "name": "marginal-branch-of-right-coronary-artery-fj2675"
  },
  {
   "mesh": 56,
   "name": "posterior-cusp-of-pulmonary-valve"
  },
  {
   "mesh": 57,
   "name": "posterior-interventricular-branch-of-right-coronary-artery-fj2692"
  },
  {
   "mesh": 58,
   "name": "posterior-interventricular-branch-of-right-coronary-artery-fj2693"
  },
  {
   "mesh": 59,
   "name": "posterior-interventricular-branch-of-right-coronary-artery-fj2694"
  },
  {
   "mesh": 60,
   "name": "posterior-interventricular-branch-of-right-coronary-artery-fj2695"
  },
  {
   "mesh": 61,
   "name": "posterior-interventricular-branch-of-right-coronary-artery-fj2696"
  },
  {
   "mesh": 62,
   "name": "posterior-interventricular-branch-of-right-coronary-artery-fj2697"
  },
  {
   "mesh": 63,
   "name": "posterior-interventricular-branch-of-right-coronary-artery-fj2698"
  },
  {
   "mesh": 64,
   "name": "posterior-interventricular-branch-of-right-coronary-artery-fj2699"
  },
  {
   "mesh": 65,
   "name": "posterior-interventricular-branch-of-right-coronary-artery-fj2700"
  },
  {
   "mesh": 66,
   "name": "posterior-leaflet-of-mitral-valve-inferior-wall-of-left-ventricle-2"
  },
  {
   "mesh": 67,
   "name": "posterior-leaflet-of-tricuspid-valve"
  },
  {
   "mesh": 68,
   "name": "pulmonary-trunk"
  },
  {
   "mesh": 69,
   "name": "right-anterior-cusp-of-pulmonary-valve"
  },
  {
   "mesh": 70,
   "name": "right-conus-artery-fj2670"
  },
  {
   "mesh": 71,
   "name": "right-conus-artery-fj2676"
  },
  {
   "mesh": 72,
   "name": "right-posterior-cusp-of-aortic-valve"
  },
  {
   "mesh": 73,
   "name": "second-right-anterior-branch-of-anterior-interventricular-branch-of-left-coronary-artery"
  },
  {
   "mesh": 74,
   "name": "septal-leaflet-of-tricuspid-valve"
  },
  {
   "mesh": 75,
   "name": "septal-papillary-muscle-of-right-ventricle"
  },
  {
   "mesh": 76,
   "name": "small-cardiac-vein-fj2724"
  },
  {
   "mesh": 77,
   "name": "small-cardiac-vein-fj2731"
  },
  {
   "mesh": 78,
   "name": "superior-vena-cava"
  },
  {
   "mesh": 79,
   "name": "third-right-anterior-branch-of-anterior-interventricular-branch-of-left-coronary-artery-fj2641"
  },
  {
   "mesh": 80,
   "name": "third-right-anterior-branch-of-anterior-interventricular-branch-of-left-coronary-artery-fj2647"
  },
  {
   "mesh": 81,
   "name": "trunk-of-anterior-interventricular-branch-of-left-coronary-artery"
  },
  {
   "mesh": 82,
   "name": "trunk-of-left-coronary-artery"
  },
  {
   "mesh": 83,
   "name": "trunk-of-right-coronary-artery"
  },
  {
   "mesh": 84,
   "name": "wall-of-left-atrium"
  },
  {
   "mesh": 85,
   "name": "wall-of-right-atrium"
  }
 ],
 "scene": 0,
 "scenes": [
  {
   "nodes": [
    0,
    1,
    2,
    3,
    4,
    5,
    6,
    7,
    8,
    9,
    10,
    11,
    12,
    13,
    14,
    15,
    16,
    17,
    18,
    19,
    20,
    21,
    22,
    23,
    24,
    25,
    26,
    27,
    28,
    29,
    30,
    31,
    32,
    33,
    34,
    35,
    36,
    37,
    38,
    39,
    40,
    41,
    42,
    43,
    44,
    45,
    46,
    47,
    48,
    49,
    50,
    51,
    52,
    53,
    54,
    55,
    56,
    57,
    58,
    59,
    60,
    61,
    62,
    63,
    64,
    65,
    66,
    67,
    68,
    69,
    70,
    71,
    72,
    73,
    74,
    75,
    76,
    77,
    78,
    79,
    80,
    81,
    82,
    83,
    84,
    85
   ]
  }
 ]
}
