{
 "accessors": [
  {
   "bufferView": 0,
   "componentType": 5126,
   "count": 11370,
   "max": [
    37.4015007019043,
    57.04999923706055,
    49.2079963684082
   ],
   "min": [
    -34.466495513916016,
    -51.82699966430664,
    -51.1150016784668
   ],
   "type": "VEC3"
  },
  {
   "bufferView": 1,
   "componentType": 5126,
   "count": 11370,
   "type": "VEC3"
  },
  {
   "bufferView": 2,
   "componentType": 5125,
   "count": 45228,
   "type": "SCALAR"
  }
 ],
 "asset": {
  "generator": "Cardiology app ingest pipeline (pipeline/ingest.py)",
  "version": "2.0"
 },
 "bufferViews": [
  {
   "buffer": 0,
   "byteLength": 136440,
   "byteOffset": 0,
   "target": 34962
  },
  {
   "buffer": 0,
   "byteLength": 136440,
   "byteOffset": 136440,
   "target": 34962
  },
  {
   "buffer": 0,
   "byteLength": 180912,
   "byteOffset": 272880,
   "target": 34963
  }
 ],
 "buffers": [
  {
   "byteLength": 453792,
   "uri": "frame-004.bin"
  }
 ],
 "meshes": [
  {
   "name": "surface",
   "primitives": [
    {
     "attributes": {
      "NORMAL": 1,
      "POSITION": 0
     },
     "indices": 2,
     "mode": 4
    }
   ]
  }
 ],
 "nodes": [
  {
   "mesh": 0,
   "name": "surface"
  }
 ],
 "scene": 0,
 "scenes": [
  {
   "nodes": [
    0
   ]
  }
 ]
}
