{
 "accessors": [
  {
   "bufferView": 0,
   "componentType": 5126,
   "count": 7536,
   "max": [
    38.567501068115234,
    52.68899917602539,
    51.51700210571289
   ],
   "min": [
    -32.75649642944336,
    -55.33699417114258,
    -50.215003967285156
   ],
   "type": "VEC3"
  },
  {
   "bufferView": 1,
   "componentType": 5126,
   "count": 7536,
   "type": "VEC3"
  },
  {
   "bufferView": 2,
   "componentType": 5125,
   "count": 45228,
   "type": "SCALAR"
  }
 ],
 "asset": {
  "generator": "Cardiology app ingest pipeline (pipeline/ingest.py)",
  "version": "2.0"
 },
 "bufferViews": [
  {
   "buffer": 0,
   "byteLength": 90432,
   "byteOffset": 0,
   "target": 34962
  },
  {
   "buffer": 0,
   "byteLength": 90432,
   "byteOffset": 90432,
   "target": 34962
  },
  {
   "buffer": 0,
   "byteLength": 180912,
   "byteOffset": 180864,
   "target": 34963
  }
 ],
 "buffers": [
  {
   "byteLength": 361776,
   "uri": "frame-016.bin"
  }
 ],
 "meshes": [
  {
   "name": "surface",
   "primitives": [
    {
     "attributes": {
      "NORMAL": 1,
      "POSITION": 0
     },
     "indices": 2,
     "mode": 4
    }
   ]
  }
 ],
 "nodes": [
  {
   "mesh": 0,
   "name": "surface"
  }
 ],
 "scene": 0,
 "scenes": [
  {
   "nodes": [
    0
   ]
  }
 ]
}
