{
 "accessors": [
  {
   "bufferView": 0,
   "componentType": 5126,
   "count": 1814,
   "max": [
    56.4775505065918,
    38.109901428222656,
    36.322845458984375
   ],
   "min": [
    -50.271148681640625,
    -41.890296936035156,
    -41.99985122680664
   ],
   "type": "VEC3"
  },
  {
   "bufferView": 1,
   "componentType": 5126,
   "count": 1814,
   "type": "VEC3"
  },
  {
   "bufferView": 2,
   "componentType": 5125,
   "count": 10872,
   "type": "SCALAR"
  }
 ],
 "asset": {
  "generator": "Cardiology app ingest pipeline (pipeline/ingest.py)",
  "version": "2.0"
 },
 "bufferViews": [
  {
   "buffer": 0,
   "byteLength": 21768,
   "byteOffset": 0,
   "target": 34962
  },
  {
   "buffer": 0,
   "byteLength": 21768,
   "byteOffset": 21768,
   "target": 34962
  },
  {
   "buffer": 0,
   "byteLength": 43488,
   "byteOffset": 43536,
   "target": 34963
  }
 ],
 "buffers": [
  {
   "byteLength": 87024,
   "uri": "frame-006.bin"
  }
 ],
 "meshes": [
  {
   "name": "surface",
   "primitives": [
    {
     "attributes": {
      "NORMAL": 1,
      "POSITION": 0
     },
     "indices": 2,
     "mode": 4
    }
   ]
  }
 ],
 "nodes": [
  {
   "mesh": 0,
   "name": "surface"
  }
 ],
 "scene": 0,
 "scenes": [
  {
   "nodes": [
    0
   ]
  }
 ]
}
