{
 "accessors": [
  {
   "bufferView": 0,
   "componentType": 5126,
   "count": 1806,
   "max": [
    56.33625411987305,
    36.43730163574219,
    36.345245361328125
   ],
   "min": [
    -57.874446868896484,
    -41.56410217285156,
    -41.46955108642578
   ],
   "type": "VEC3"
  },
  {
   "bufferView": 1,
   "componentType": 5126,
   "count": 1806,
   "type": "VEC3"
  },
  {
   "bufferView": 2,
   "componentType": 5125,
   "count": 10824,
   "type": "SCALAR"
  }
 ],
 "asset": {
  "generator": "Cardiology app ingest pipeline (pipeline/ingest.py)",
  "version": "2.0"
 },
 "bufferViews": [
  {
   "buffer": 0,
   "byteLength": 21672,
   "byteOffset": 0,
   "target": 34962
  },
  {
   "buffer": 0,
   "byteLength": 21672,
   "byteOffset": 21672,
   "target": 34962
  },
  {
   "buffer": 0,
   "byteLength": 43296,
   "byteOffset": 43344,
   "target": 34963
  }
 ],
 "buffers": [
  {
   "byteLength": 86640,
   "uri": "frame-007.bin"
  }
 ],
 "meshes": [
  {
   "name": "surface",
   "primitives": [
    {
     "attributes": {
      "NORMAL": 1,
      "POSITION": 0
     },
     "indices": 2,
     "mode": 4
    }
   ]
  }
 ],
 "nodes": [
  {
   "mesh": 0,
   "name": "surface"
  }
 ],
 "scene": 0,
 "scenes": [
  {
   "nodes": [
    0
   ]
  }
 ]
}
