{
 "accessors": [
  {
   "bufferView": 0,
   "componentType": 5126,
   "count": 1738,
   "max": [
    55.633052825927734,
    36.21409606933594,
    37.36754608154297
   ],
   "min": [
    -53.45874786376953,
    -43.58180236816406,
    -41.078651428222656
   ],
   "type": "VEC3"
  },
  {
   "bufferView": 1,
   "componentType": 5126,
   "count": 1738,
   "type": "VEC3"
  },
  {
   "bufferView": 2,
   "componentType": 5125,
   "count": 10458,
   "type": "SCALAR"
  }
 ],
 "asset": {
  "generator": "Cardiology app ingest pipeline (pipeline/ingest.py)",
  "version": "2.0"
 },
 "bufferViews": [
  {
   "buffer": 0,
   "byteLength": 20856,
   "byteOffset": 0,
   "target": 34962
  },
  {
   "buffer": 0,
   "byteLength": 20856,
   "byteOffset": 20856,
   "target": 34962
  },
  {
   "buffer": 0,
   "byteLength": 41832,
   "byteOffset": 41712,
   "target": 34963
  }
 ],
 "buffers": [
  {
   "byteLength": 83544,
   "uri": "frame-008.bin"
  }
 ],
 "meshes": [
  {
   "name": "surface",
   "primitives": [
    {
     "attributes": {
      "NORMAL": 1,
      "POSITION": 0
     },
     "indices": 2,
     "mode": 4
    }
   ]
  }
 ],
 "nodes": [
  {
   "mesh": 0,
   "name": "surface"
  }
 ],
 "scene": 0,
 "scenes": [
  {
   "nodes": [
    0
   ]
  }
 ]
}
