{
 "accessors": [
  {
   "bufferView": 0,
   "componentType": 5126,
   "count": 2225,
   "max": [
    59.0296516418457,
    43.27849578857422,
    45.83294677734375
   ],
   "min": [
    -59.832149505615234,
    -42.37030029296875,
    -44.80455017089844
   ],
   "type": "VEC3"
  },
  {
   "bufferView": 1,
   "componentType": 5126,
   "count": 2225,
   "type": "VEC3"
  },
  {
   "bufferView": 2,
   "componentType": 5125,
   "count": 13458,
   "type": "SCALAR"
  }
 ],
 "asset": {
  "generator": "Cardiology app ingest pipeline (pipeline/ingest.py)",
  "version": "2.0"
 },
 "bufferViews": [
  {
   "buffer": 0,
   "byteLength": 26700,
   "byteOffset": 0,
   "target": 34962
  },
  {
   "buffer": 0,
   "byteLength": 26700,
   "byteOffset": 26700,
   "target": 34962
  },
  {
   "buffer": 0,
   "byteLength": 53832,
   "byteOffset": 53400,
   "target": 34963
  }
 ],
 "buffers": [
  {
   "byteLength": 107232,
   "uri": "frame-001.bin"
  }
 ],
 "meshes": [
  {
   "name": "surface",
   "primitives": [
    {
     "attributes": {
      "NORMAL": 1,
      "POSITION": 0
     },
     "indices": 2,
     "mode": 4
    }
   ]
  }
 ],
 "nodes": [
  {
   "mesh": 0,
   "name": "surface"
  }
 ],
 "scene": 0,
 "scenes": [
  {
   "nodes": [
    0
   ]
  }
 ]
}
