{
 "accessors": [
  {
   "bufferView": 0,
   "componentType": 5126,
   "count": 2078,
   "max": [
    58.45085525512695,
    41.241798400878906,
    43.343849182128906
   ],
   "min": [
    -56.36684799194336,
    -41.71870422363281,
    -44.764652252197266
   ],
   "type": "VEC3"
  },
  {
   "bufferView": 1,
   "componentType": 5126,
   "count": 2078,
   "type": "VEC3"
  },
  {
   "bufferView": 2,
   "componentType": 5125,
   "count": 12450,
   "type": "SCALAR"
  }
 ],
 "asset": {
  "generator": "Cardiology app ingest pipeline (pipeline/ingest.py)",
  "version": "2.0"
 },
 "bufferViews": [
  {
   "buffer": 0,
   "byteLength": 24936,
   "byteOffset": 0,
   "target": 34962
  },
  {
   "buffer": 0,
   "byteLength": 24936,
   "byteOffset": 24936,
   "target": 34962
  },
  {
   "buffer": 0,
   "byteLength": 49800,
   "byteOffset": 49872,
   "target": 34963
  }
 ],
 "buffers": [
  {
   "byteLength": 99672,
   "uri": "frame-004.bin"
  }
 ],
 "meshes": [
  {
   "name": "surface",
   "primitives": [
    {
     "attributes": {
      "NORMAL": 1,
      "POSITION": 0
     },
     "indices": 2,
     "mode": 4
    }
   ]
  }
 ],
 "nodes": [
  {
   "mesh": 0,
   "name": "surface"
  }
 ],
 "scene": 0,
 "scenes": [
  {
   "nodes": [
    0
   ]
  }
 ]
}
