{
 "accessors": [
  {
   "bufferView": 0,
   "componentType": 5126,
   "count": 2214,
   "max": [
    59.832149505615234,
    43.35459899902344,
    45.92625427246094
   ],
   "min": [
    -59.370147705078125,
    -42.596099853515625,
    -45.92625427246094
   ],
   "type": "VEC3"
  },
  {
   "bufferView": 1,
   "componentType": 5126,
   "count": 2214,
   "type": "VEC3"
  },
  {
   "bufferView": 2,
   "componentType": 5125,
   "count": 13476,
   "type": "SCALAR"
  }
 ],
 "asset": {
  "generator": "Cardiology app ingest pipeline (pipeline/ingest.py)",
  "version": "2.0"
 },
 "bufferViews": [
  {
   "buffer": 0,
   "byteLength": 26568,
   "byteOffset": 0,
   "target": 34962
  },
  {
   "buffer": 0,
   "byteLength": 26568,
   "byteOffset": 26568,
   "target": 34962
  },
  {
   "buffer": 0,
   "byteLength": 53904,
   "byteOffset": 53136,
   "target": 34963
  }
 ],
 "buffers": [
  {
   "byteLength": 107040,
   "uri": "model.bin"
  }
 ],
 "meshes": [
  {
   "name": "surface",
   "primitives": [
    {
     "attributes": {
      "NORMAL": 1,
      "POSITION": 0
     },
     "indices": 2,
     "mode": 4
    }
   ]
  }
 ],
 "nodes": [
  {
   "mesh": 0,
   "name": "surface"
  }
 ],
 "scene": 0,
 "scenes": [
  {
   "nodes": [
    0
   ]
  }
 ]
}
