{
 "accessors": [
  {
   "bufferView": 0,
   "componentType": 5126,
   "count": 58009,
   "max": [
    37.990806579589844,
    50.36491394042969,
    80.13892364501953
   ],
   "min": [
    -71.69174194335938,
    -72.35913848876953,
    -64.72814178466797
   ],
   "type": "VEC3"
  },
  {
   "bufferView": 1,
   "componentType": 5126,
   "count": 58009,
   "type": "VEC3"
  },
  {
   "bufferView": 2,
   "componentType": 5125,
   "count": 360000,
   "type": "SCALAR"
  }
 ],
 "asset": {
  "generator": "Cardiology app ingest pipeline (pipeline/ingest.py)",
  "version": "2.0"
 },
 "bufferViews": [
  {
   "buffer": 0,
   "byteLength": 696108,
   "byteOffset": 0,
   "target": 34962
  },
  {
   "buffer": 0,
   "byteLength": 696108,
   "byteOffset": 696108,
   "target": 34962
  },
  {
   "buffer": 0,
   "byteLength": 1440000,
   "byteOffset": 1392216,
   "target": 34963
  }
 ],
 "buffers": [
  {
   "byteLength": 2832216,
   "uri": "cleaned-review.bin"
  }
 ],
 "meshes": [
  {
   "name": "myocardial-tissue-cleaned",
   "primitives": [
    {
     "attributes": {
      "NORMAL": 1,
      "POSITION": 0
     },
     "indices": 2,
     "mode": 4
    }
   ]
  }
 ],
 "nodes": [
  {
   "mesh": 0,
   "name": "myocardial-tissue-cleaned"
  }
 ],
 "scene": 0,
 "scenes": [
  {
   "nodes": [
    0
   ]
  }
 ]
}
